<?xml version="1.0" encoding="utf-8"?>
<!DOCTYPE svg PUBLIC "-//W3C//DTD SVG 20010904//EN" "http://www.w3.org/TR/2001/REC-SVG-20010904/DTD/svg10.dtd">
<svg xmlns="http://www.w3.org/2000/svg" xml:space="preserve" xmlns:xlink="http://www.w3.org/1999/xlink" width="990" height="990" viewBox="0 0 990 990">
<defs>
<mask id="qrmask"><g fill="#ffffff">
<g transform="translate(220,44) scale(3.6666666666667)"><rect width="6" height="6"/></g>
<g transform="translate(308,44) scale(3.6666666666667)"><rect width="6" height="6"/></g>
<g transform="translate(418,44) scale(3.6666666666667)"><rect width="6" height="6"/></g>
<g transform="translate(506,44) scale(3.6666666666667)"><rect width="6" height="6"/></g>
<g transform="translate(594,44) scale(3.6666666666667)"><rect width="6" height="6"/></g>
<g transform="translate(616,44) scale(3.6666666666667)"><rect width="6" height="6"/></g>
<g transform="translate(682,44) scale(3.6666666666667)"><rect width="6" height="6"/></g>
<g transform="translate(704,44) scale(3.6666666666667)"><rect width="6" height="6"/></g>
<g transform="translate(726,44) scale(3.6666666666667)"><rect width="6" height="6"/></g>
<g transform="translate(748,44) scale(3.6666666666667)"><rect width="6" height="6"/></g>
<g transform="translate(220,66) scale(3.6666666666667)"><rect width="6" height="6"/></g>
<g transform="translate(264,66) scale(3.6666666666667)"><rect width="6" height="6"/></g>
<g transform="translate(286,66) scale(3.6666666666667)"><rect width="6" height="6"/></g>
<g transform="translate(308,66) scale(3.6666666666667)"><rect width="6" height="6"/></g>
<g transform="translate(330,66) scale(3.6666666666667)"><rect width="6" height="6"/></g>
<g transform="translate(352,66) scale(3.6666666666667)"><rect width="6" height="6"/></g>
<g transform="translate(374,66) scale(3.6666666666667)"><rect width="6" height="6"/></g>
<g transform="translate(396,66) scale(3.6666666666667)"><rect width="6" height="6"/></g>
<g transform="translate(418,66) scale(3.6666666666667)"><rect width="6" height="6"/></g>
<g transform="translate(484,66) scale(3.6666666666667)"><rect width="6" height="6"/></g>
<g transform="translate(528,66) scale(3.6666666666667)"><rect width="6" height="6"/></g>
<g transform="translate(572,66) scale(3.6666666666667)"><rect width="6" height="6"/></g>
<g transform="translate(594,66) scale(3.6666666666667)"><rect width="6" height="6"/></g>
<g transform="translate(616,66) scale(3.6666666666667)"><rect width="6" height="6"/></g>
<g transform="translate(638,66) scale(3.6666666666667)"><rect width="6" height="6"/></g>
<g transform="translate(660,66) scale(3.6666666666667)"><rect width="6" height="6"/></g>
<g transform="translate(682,66) scale(3.6666666666667)"><rect width="6" height="6"/></g>
<g transform="translate(748,66) scale(3.6666666666667)"><rect width="6" height="6"/></g>
<g transform="translate(220,88) scale(3.6666666666667)"><rect width="6" height="6"/></g>
<g transform="translate(286,88) scale(3.6666666666667)"><rect width="6" height="6"/></g>
<g transform="translate(352,88) scale(3.6666666666667)"><rect width="6" height="6"/></g>
<g transform="translate(374,88) scale(3.6666666666667)"><rect width="6" height="6"/></g>
<g transform="translate(418,88) scale(3.6666666666667)"><rect width="6" height="6"/></g>
<g transform="translate(462,88) scale(3.6666666666667)"><rect width="6" height="6"/></g>
<g transform="translate(506,88) scale(3.6666666666667)"><rect width="6" height="6"/></g>
<g transform="translate(528,88) scale(3.6666666666667)"><rect width="6" height="6"/></g>
<g transform="translate(550,88) scale(3.6666666666667)"><rect width="6" height="6"/></g>
<g transform="translate(572,88) scale(3.6666666666667)"><rect width="6" height="6"/></g>
<g transform="translate(594,88) scale(3.6666666666667)"><rect width="6" height="6"/></g>
<g transform="translate(638,88) scale(3.6666666666667)"><rect width="6" height="6"/></g>
<g transform="translate(660,88) scale(3.6666666666667)"><rect width="6" height="6"/></g>
<g transform="translate(748,88) scale(3.6666666666667)"><rect width="6" height="6"/></g>
<g transform="translate(286,110) scale(3.6666666666667)"><rect width="6" height="6"/></g>
<g transform="translate(330,110) scale(3.6666666666667)"><rect width="6" height="6"/></g>
<g transform="translate(440,110) scale(3.6666666666667)"><rect width="6" height="6"/></g>
<g transform="translate(462,110) scale(3.6666666666667)"><rect width="6" height="6"/></g>
<g transform="translate(506,110) scale(3.6666666666667)"><rect width="6" height="6"/></g>
<g transform="translate(528,110) scale(3.6666666666667)"><rect width="6" height="6"/></g>
<g transform="translate(550,110) scale(3.6666666666667)"><rect width="6" height="6"/></g>
<g transform="translate(572,110) scale(3.6666666666667)"><rect width="6" height="6"/></g>
<g transform="translate(616,110) scale(3.6666666666667)"><rect width="6" height="6"/></g>
<g transform="translate(704,110) scale(3.6666666666667)"><rect width="6" height="6"/></g>
<g transform="translate(264,132) scale(3.6666666666667)"><rect width="6" height="6"/></g>
<g transform="translate(286,132) scale(3.6666666666667)"><rect width="6" height="6"/></g>
<g transform="translate(308,132) scale(3.6666666666667)"><rect width="6" height="6"/></g>
<g transform="translate(330,132) scale(3.6666666666667)"><rect width="6" height="6"/></g>
<g transform="translate(352,132) scale(3.6666666666667)"><rect width="6" height="6"/></g>
<g transform="translate(396,132) scale(3.6666666666667)"><rect width="6" height="6"/></g>
<g transform="translate(440,132) scale(3.6666666666667)"><rect width="6" height="6"/></g>
<g transform="translate(550,132) scale(3.6666666666667)"><rect width="6" height="6"/></g>
<g transform="translate(660,132) scale(3.6666666666667)"><rect width="6" height="6"/></g>
<g transform="translate(704,132) scale(3.6666666666667)"><rect width="6" height="6"/></g>
<g transform="translate(726,132) scale(3.6666666666667)"><rect width="6" height="6"/></g>
<g transform="translate(748,132) scale(3.6666666666667)"><rect width="6" height="6"/></g>
<g transform="translate(220,154) scale(3.6666666666667)"><rect width="6" height="6"/></g>
<g transform="translate(242,154) scale(3.6666666666667)"><rect width="6" height="6"/></g>
<g transform="translate(286,154) scale(3.6666666666667)"><rect width="6" height="6"/></g>
<g transform="translate(330,154) scale(3.6666666666667)"><rect width="6" height="6"/></g>
<g transform="translate(352,154) scale(3.6666666666667)"><rect width="6" height="6"/></g>
<g transform="translate(396,154) scale(3.6666666666667)"><rect width="6" height="6"/></g>
<g transform="translate(528,154) scale(3.6666666666667)"><rect width="6" height="6"/></g>
<g transform="translate(550,154) scale(3.6666666666667)"><rect width="6" height="6"/></g>
<g transform="translate(572,154) scale(3.6666666666667)"><rect width="6" height="6"/></g>
<g transform="translate(616,154) scale(3.6666666666667)"><rect width="6" height="6"/></g>
<g transform="translate(638,154) scale(3.6666666666667)"><rect width="6" height="6"/></g>
<g transform="translate(660,154) scale(3.6666666666667)"><rect width="6" height="6"/></g>
<g transform="translate(682,154) scale(3.6666666666667)"><rect width="6" height="6"/></g>
<g transform="translate(748,154) scale(3.6666666666667)"><rect width="6" height="6"/></g>
<g transform="translate(220,176) scale(3.6666666666667)"><rect width="6" height="6"/></g>
<g transform="translate(264,176) scale(3.6666666666667)"><rect width="6" height="6"/></g>
<g transform="translate(308,176) scale(3.6666666666667)"><rect width="6" height="6"/></g>
<g transform="translate(352,176) scale(3.6666666666667)"><rect width="6" height="6"/></g>
<g transform="translate(396,176) scale(3.6666666666667)"><rect width="6" height="6"/></g>
<g transform="translate(440,176) scale(3.6666666666667)"><rect width="6" height="6"/></g>
<g transform="translate(484,176) scale(3.6666666666667)"><rect width="6" height="6"/></g>
<g transform="translate(528,176) scale(3.6666666666667)"><rect width="6" height="6"/></g>
<g transform="translate(572,176) scale(3.6666666666667)"><rect width="6" height="6"/></g>
<g transform="translate(616,176) scale(3.6666666666667)"><rect width="6" height="6"/></g>
<g transform="translate(660,176) scale(3.6666666666667)"><rect width="6" height="6"/></g>
<g transform="translate(704,176) scale(3.6666666666667)"><rect width="6" height="6"/></g>
<g transform="translate(748,176) scale(3.6666666666667)"><rect width="6" height="6"/></g>
<g transform="translate(220,198) scale(3.6666666666667)"><rect width="6" height="6"/></g>
<g transform="translate(242,198) scale(3.6666666666667)"><rect width="6" height="6"/></g>
<g transform="translate(352,198) scale(3.6666666666667)"><rect width="6" height="6"/></g>
<g transform="translate(374,198) scale(3.6666666666667)"><rect width="6" height="6"/></g>
<g transform="translate(550,198) scale(3.6666666666667)"><rect width="6" height="6"/></g>
<g transform="translate(594,198) scale(3.6666666666667)"><rect width="6" height="6"/></g>
<g transform="translate(616,198) scale(3.6666666666667)"><rect width="6" height="6"/></g>
<g transform="translate(660,198) scale(3.6666666666667)"><rect width="6" height="6"/></g>
<g transform="translate(726,198) scale(3.6666666666667)"><rect width="6" height="6"/></g>
<g transform="translate(748,198) scale(3.6666666666667)"><rect width="6" height="6"/></g>
<g transform="translate(88,220) scale(3.6666666666667)"><rect width="6" height="6"/></g>
<g transform="translate(110,220) scale(3.6666666666667)"><rect width="6" height="6"/></g>
<g transform="translate(132,220) scale(3.6666666666667)"><rect width="6" height="6"/></g>
<g transform="translate(176,220) scale(3.6666666666667)"><rect width="6" height="6"/></g>
<g transform="translate(220,220) scale(3.6666666666667)"><rect width="6" height="6"/></g>
<g transform="translate(286,220) scale(3.6666666666667)"><rect width="6" height="6"/></g>
<g transform="translate(330,220) scale(3.6666666666667)"><rect width="6" height="6"/></g>
<g transform="translate(374,220) scale(3.6666666666667)"><rect width="6" height="6"/></g>
<g transform="translate(396,220) scale(3.6666666666667)"><rect width="6" height="6"/></g>
<g transform="translate(418,220) scale(3.6666666666667)"><rect width="6" height="6"/></g>
<g transform="translate(462,220) scale(3.6666666666667)"><rect width="6" height="6"/></g>
<g transform="translate(484,220) scale(3.6666666666667)"><rect width="6" height="6"/></g>
<g transform="translate(506,220) scale(3.6666666666667)"><rect width="6" height="6"/></g>
<g transform="translate(528,220) scale(3.6666666666667)"><rect width="6" height="6"/></g>
<g transform="translate(550,220) scale(3.6666666666667)"><rect width="6" height="6"/></g>
<g transform="translate(572,220) scale(3.6666666666667)"><rect width="6" height="6"/></g>
<g transform="translate(594,220) scale(3.6666666666667)"><rect width="6" height="6"/></g>
<g transform="translate(616,220) scale(3.6666666666667)"><rect width="6" height="6"/></g>
<g transform="translate(682,220) scale(3.6666666666667)"><rect width="6" height="6"/></g>
<g transform="translate(726,220) scale(3.6666666666667)"><rect width="6" height="6"/></g>
<g transform="translate(748,220) scale(3.6666666666667)"><rect width="6" height="6"/></g>
<g transform="translate(770,220) scale(3.6666666666667)"><rect width="6" height="6"/></g>
<g transform="translate(792,220) scale(3.6666666666667)"><rect width="6" height="6"/></g>
<g transform="translate(814,220) scale(3.6666666666667)"><rect width="6" height="6"/></g>
<g transform="translate(880,220) scale(3.6666666666667)"><rect width="6" height="6"/></g>
<g transform="translate(902,220) scale(3.6666666666667)"><rect width="6" height="6"/></g>
<g transform="translate(924,220) scale(3.6666666666667)"><rect width="6" height="6"/></g>
<g transform="translate(44,242) scale(3.6666666666667)"><rect width="6" height="6"/></g>
<g transform="translate(88,242) scale(3.6666666666667)"><rect width="6" height="6"/></g>
<g transform="translate(110,242) scale(3.6666666666667)"><rect width="6" height="6"/></g>
<g transform="translate(132,242) scale(3.6666666666667)"><rect width="6" height="6"/></g>
<g transform="translate(154,242) scale(3.6666666666667)"><rect width="6" height="6"/></g>
<g transform="translate(220,242) scale(3.6666666666667)"><rect width="6" height="6"/></g>
<g transform="translate(286,242) scale(3.6666666666667)"><rect width="6" height="6"/></g>
<g transform="translate(308,242) scale(3.6666666666667)"><rect width="6" height="6"/></g>
<g transform="translate(330,242) scale(3.6666666666667)"><rect width="6" height="6"/></g>
<g transform="translate(418,242) scale(3.6666666666667)"><rect width="6" height="6"/></g>
<g transform="translate(440,242) scale(3.6666666666667)"><rect width="6" height="6"/></g>
<g transform="translate(462,242) scale(3.6666666666667)"><rect width="6" height="6"/></g>
<g transform="translate(506,242) scale(3.6666666666667)"><rect width="6" height="6"/></g>
<g transform="translate(572,242) scale(3.6666666666667)"><rect width="6" height="6"/></g>
<g transform="translate(594,242) scale(3.6666666666667)"><rect width="6" height="6"/></g>
<g transform="translate(616,242) scale(3.6666666666667)"><rect width="6" height="6"/></g>
<g transform="translate(660,242) scale(3.6666666666667)"><rect width="6" height="6"/></g>
<g transform="translate(682,242) scale(3.6666666666667)"><rect width="6" height="6"/></g>
<g transform="translate(726,242) scale(3.6666666666667)"><rect width="6" height="6"/></g>
<g transform="translate(748,242) scale(3.6666666666667)"><rect width="6" height="6"/></g>
<g transform="translate(770,242) scale(3.6666666666667)"><rect width="6" height="6"/></g>
<g transform="translate(792,242) scale(3.6666666666667)"><rect width="6" height="6"/></g>
<g transform="translate(836,242) scale(3.6666666666667)"><rect width="6" height="6"/></g>
<g transform="translate(880,242) scale(3.6666666666667)"><rect width="6" height="6"/></g>
<g transform="translate(924,242) scale(3.6666666666667)"><rect width="6" height="6"/></g>
<g transform="translate(44,264) scale(3.6666666666667)"><rect width="6" height="6"/></g>
<g transform="translate(66,264) scale(3.6666666666667)"><rect width="6" height="6"/></g>
<g transform="translate(88,264) scale(3.6666666666667)"><rect width="6" height="6"/></g>
<g transform="translate(110,264) scale(3.6666666666667)"><rect width="6" height="6"/></g>
<g transform="translate(154,264) scale(3.6666666666667)"><rect width="6" height="6"/></g>
<g transform="translate(176,264) scale(3.6666666666667)"><rect width="6" height="6"/></g>
<g transform="translate(308,264) scale(3.6666666666667)"><rect width="6" height="6"/></g>
<g transform="translate(352,264) scale(3.6666666666667)"><rect width="6" height="6"/></g>
<g transform="translate(374,264) scale(3.6666666666667)"><rect width="6" height="6"/></g>
<g transform="translate(462,264) scale(3.6666666666667)"><rect width="6" height="6"/></g>
<g transform="translate(484,264) scale(3.6666666666667)"><rect width="6" height="6"/></g>
<g transform="translate(550,264) scale(3.6666666666667)"><rect width="6" height="6"/></g>
<g transform="translate(616,264) scale(3.6666666666667)"><rect width="6" height="6"/></g>
<g transform="translate(638,264) scale(3.6666666666667)"><rect width="6" height="6"/></g>
<g transform="translate(748,264) scale(3.6666666666667)"><rect width="6" height="6"/></g>
<g transform="translate(770,264) scale(3.6666666666667)"><rect width="6" height="6"/></g>
<g transform="translate(814,264) scale(3.6666666666667)"><rect width="6" height="6"/></g>
<g transform="translate(902,264) scale(3.6666666666667)"><rect width="6" height="6"/></g>
<g transform="translate(110,286) scale(3.6666666666667)"><rect width="6" height="6"/></g>
<g transform="translate(198,286) scale(3.6666666666667)"><rect width="6" height="6"/></g>
<g transform="translate(264,286) scale(3.6666666666667)"><rect width="6" height="6"/></g>
<g transform="translate(308,286) scale(3.6666666666667)"><rect width="6" height="6"/></g>
<g transform="translate(330,286) scale(3.6666666666667)"><rect width="6" height="6"/></g>
<g transform="translate(396,286) scale(3.6666666666667)"><rect width="6" height="6"/></g>
<g transform="translate(418,286) scale(3.6666666666667)"><rect width="6" height="6"/></g>
<g transform="translate(462,286) scale(3.6666666666667)"><rect width="6" height="6"/></g>
<g transform="translate(572,286) scale(3.6666666666667)"><rect width="6" height="6"/></g>
<g transform="translate(594,286) scale(3.6666666666667)"><rect width="6" height="6"/></g>
<g transform="translate(638,286) scale(3.6666666666667)"><rect width="6" height="6"/></g>
<g transform="translate(660,286) scale(3.6666666666667)"><rect width="6" height="6"/></g>
<g transform="translate(726,286) scale(3.6666666666667)"><rect width="6" height="6"/></g>
<g transform="translate(748,286) scale(3.6666666666667)"><rect width="6" height="6"/></g>
<g transform="translate(792,286) scale(3.6666666666667)"><rect width="6" height="6"/></g>
<g transform="translate(836,286) scale(3.6666666666667)"><rect width="6" height="6"/></g>
<g transform="translate(858,286) scale(3.6666666666667)"><rect width="6" height="6"/></g>
<g transform="translate(66,308) scale(3.6666666666667)"><rect width="6" height="6"/></g>
<g transform="translate(88,308) scale(3.6666666666667)"><rect width="6" height="6"/></g>
<g transform="translate(110,308) scale(3.6666666666667)"><rect width="6" height="6"/></g>
<g transform="translate(176,308) scale(3.6666666666667)"><rect width="6" height="6"/></g>
<g transform="translate(198,308) scale(3.6666666666667)"><rect width="6" height="6"/></g>
<g transform="translate(352,308) scale(3.6666666666667)"><rect width="6" height="6"/></g>
<g transform="translate(374,308) scale(3.6666666666667)"><rect width="6" height="6"/></g>
<g transform="translate(418,308) scale(3.6666666666667)"><rect width="6" height="6"/></g>
<g transform="translate(462,308) scale(3.6666666666667)"><rect width="6" height="6"/></g>
<g transform="translate(550,308) scale(3.6666666666667)"><rect width="6" height="6"/></g>
<g transform="translate(616,308) scale(3.6666666666667)"><rect width="6" height="6"/></g>
<g transform="translate(660,308) scale(3.6666666666667)"><rect width="6" height="6"/></g>
<g transform="translate(682,308) scale(3.6666666666667)"><rect width="6" height="6"/></g>
<g transform="translate(704,308) scale(3.6666666666667)"><rect width="6" height="6"/></g>
<g transform="translate(726,308) scale(3.6666666666667)"><rect width="6" height="6"/></g>
<g transform="translate(770,308) scale(3.6666666666667)"><rect width="6" height="6"/></g>
<g transform="translate(858,308) scale(3.6666666666667)"><rect width="6" height="6"/></g>
<g transform="translate(880,308) scale(3.6666666666667)"><rect width="6" height="6"/></g>
<g transform="translate(902,308) scale(3.6666666666667)"><rect width="6" height="6"/></g>
<g transform="translate(924,308) scale(3.6666666666667)"><rect width="6" height="6"/></g>
<g transform="translate(44,330) scale(3.6666666666667)"><rect width="6" height="6"/></g>
<g transform="translate(88,330) scale(3.6666666666667)"><rect width="6" height="6"/></g>
<g transform="translate(110,330) scale(3.6666666666667)"><rect width="6" height="6"/></g>
<g transform="translate(264,330) scale(3.6666666666667)"><rect width="6" height="6"/></g>
<g transform="translate(308,330) scale(3.6666666666667)"><rect width="6" height="6"/></g>
<g transform="translate(330,330) scale(3.6666666666667)"><rect width="6" height="6"/></g>
<g transform="translate(352,330) scale(3.6666666666667)"><rect width="6" height="6"/></g>
<g transform="translate(396,330) scale(3.6666666666667)"><rect width="6" height="6"/></g>
<g transform="translate(418,330) scale(3.6666666666667)"><rect width="6" height="6"/></g>
<g transform="translate(440,330) scale(3.6666666666667)"><rect width="6" height="6"/></g>
<g transform="translate(484,330) scale(3.6666666666667)"><rect width="6" height="6"/></g>
<g transform="translate(506,330) scale(3.6666666666667)"><rect width="6" height="6"/></g>
<g transform="translate(528,330) scale(3.6666666666667)"><rect width="6" height="6"/></g>
<g transform="translate(638,330) scale(3.6666666666667)"><rect width="6" height="6"/></g>
<g transform="translate(704,330) scale(3.6666666666667)"><rect width="6" height="6"/></g>
<g transform="translate(726,330) scale(3.6666666666667)"><rect width="6" height="6"/></g>
<g transform="translate(792,330) scale(3.6666666666667)"><rect width="6" height="6"/></g>
<g transform="translate(814,330) scale(3.6666666666667)"><rect width="6" height="6"/></g>
<g transform="translate(836,330) scale(3.6666666666667)"><rect width="6" height="6"/></g>
<g transform="translate(880,330) scale(3.6666666666667)"><rect width="6" height="6"/></g>
<g transform="translate(924,330) scale(3.6666666666667)"><rect width="6" height="6"/></g>
<g transform="translate(44,352) scale(3.6666666666667)"><rect width="6" height="6"/></g>
<g transform="translate(88,352) scale(3.6666666666667)"><rect width="6" height="6"/></g>
<g transform="translate(154,352) scale(3.6666666666667)"><rect width="6" height="6"/></g>
<g transform="translate(176,352) scale(3.6666666666667)"><rect width="6" height="6"/></g>
<g transform="translate(264,352) scale(3.6666666666667)"><rect width="6" height="6"/></g>
<g transform="translate(308,352) scale(3.6666666666667)"><rect width="6" height="6"/></g>
<g transform="translate(374,352) scale(3.6666666666667)"><rect width="6" height="6"/></g>
<g transform="translate(418,352) scale(3.6666666666667)"><rect width="6" height="6"/></g>
<g transform="translate(440,352) scale(3.6666666666667)"><rect width="6" height="6"/></g>
<g transform="translate(484,352) scale(3.6666666666667)"><rect width="6" height="6"/></g>
<g transform="translate(506,352) scale(3.6666666666667)"><rect width="6" height="6"/></g>
<g transform="translate(528,352) scale(3.6666666666667)"><rect width="6" height="6"/></g>
<g transform="translate(550,352) scale(3.6666666666667)"><rect width="6" height="6"/></g>
<g transform="translate(572,352) scale(3.6666666666667)"><rect width="6" height="6"/></g>
<g transform="translate(594,352) scale(3.6666666666667)"><rect width="6" height="6"/></g>
<g transform="translate(616,352) scale(3.6666666666667)"><rect width="6" height="6"/></g>
<g transform="translate(638,352) scale(3.6666666666667)"><rect width="6" height="6"/></g>
<g transform="translate(660,352) scale(3.6666666666667)"><rect width="6" height="6"/></g>
<g transform="translate(704,352) scale(3.6666666666667)"><rect width="6" height="6"/></g>
<g transform="translate(748,352) scale(3.6666666666667)"><rect width="6" height="6"/></g>
<g transform="translate(770,352) scale(3.6666666666667)"><rect width="6" height="6"/></g>
<g transform="translate(814,352) scale(3.6666666666667)"><rect width="6" height="6"/></g>
<g transform="translate(836,352) scale(3.6666666666667)"><rect width="6" height="6"/></g>
<g transform="translate(858,352) scale(3.6666666666667)"><rect width="6" height="6"/></g>
<g transform="translate(880,352) scale(3.6666666666667)"><rect width="6" height="6"/></g>
<g transform="translate(132,374) scale(3.6666666666667)"><rect width="6" height="6"/></g>
<g transform="translate(264,374) scale(3.6666666666667)"><rect width="6" height="6"/></g>
<g transform="translate(374,374) scale(3.6666666666667)"><rect width="6" height="6"/></g>
<g transform="translate(396,374) scale(3.6666666666667)"><rect width="6" height="6"/></g>
<g transform="translate(418,374) scale(3.6666666666667)"><rect width="6" height="6"/></g>
<g transform="translate(440,374) scale(3.6666666666667)"><rect width="6" height="6"/></g>
<g transform="translate(484,374) scale(3.6666666666667)"><rect width="6" height="6"/></g>
<g transform="translate(506,374) scale(3.6666666666667)"><rect width="6" height="6"/></g>
<g transform="translate(572,374) scale(3.6666666666667)"><rect width="6" height="6"/></g>
<g transform="translate(638,374) scale(3.6666666666667)"><rect width="6" height="6"/></g>
<g transform="translate(748,374) scale(3.6666666666667)"><rect width="6" height="6"/></g>
<g transform="translate(792,374) scale(3.6666666666667)"><rect width="6" height="6"/></g>
<g transform="translate(858,374) scale(3.6666666666667)"><rect width="6" height="6"/></g>
<g transform="translate(44,396) scale(3.6666666666667)"><rect width="6" height="6"/></g>
<g transform="translate(66,396) scale(3.6666666666667)"><rect width="6" height="6"/></g>
<g transform="translate(88,396) scale(3.6666666666667)"><rect width="6" height="6"/></g>
<g transform="translate(110,396) scale(3.6666666666667)"><rect width="6" height="6"/></g>
<g transform="translate(132,396) scale(3.6666666666667)"><rect width="6" height="6"/></g>
<g transform="translate(154,396) scale(3.6666666666667)"><rect width="6" height="6"/></g>
<g transform="translate(176,396) scale(3.6666666666667)"><rect width="6" height="6"/></g>
<g transform="translate(198,396) scale(3.6666666666667)"><rect width="6" height="6"/></g>
<g transform="translate(286,396) scale(3.6666666666667)"><rect width="6" height="6"/></g>
<g transform="translate(308,396) scale(3.6666666666667)"><rect width="6" height="6"/></g>
<g transform="translate(330,396) scale(3.6666666666667)"><rect width="6" height="6"/></g>
<g transform="translate(440,396) scale(3.6666666666667)"><rect width="6" height="6"/></g>
<g transform="translate(462,396) scale(3.6666666666667)"><rect width="6" height="6"/></g>
<g transform="translate(484,396) scale(3.6666666666667)"><rect width="6" height="6"/></g>
<g transform="translate(506,396) scale(3.6666666666667)"><rect width="6" height="6"/></g>
<g transform="translate(528,396) scale(3.6666666666667)"><rect width="6" height="6"/></g>
<g transform="translate(594,396) scale(3.6666666666667)"><rect width="6" height="6"/></g>
<g transform="translate(638,396) scale(3.6666666666667)"><rect width="6" height="6"/></g>
<g transform="translate(682,396) scale(3.6666666666667)"><rect width="6" height="6"/></g>
<g transform="translate(748,396) scale(3.6666666666667)"><rect width="6" height="6"/></g>
<g transform="translate(770,396) scale(3.6666666666667)"><rect width="6" height="6"/></g>
<g transform="translate(814,396) scale(3.6666666666667)"><rect width="6" height="6"/></g>
<g transform="translate(880,396) scale(3.6666666666667)"><rect width="6" height="6"/></g>
<g transform="translate(902,396) scale(3.6666666666667)"><rect width="6" height="6"/></g>
<g transform="translate(44,418) scale(3.6666666666667)"><rect width="6" height="6"/></g>
<g transform="translate(88,418) scale(3.6666666666667)"><rect width="6" height="6"/></g>
<g transform="translate(110,418) scale(3.6666666666667)"><rect width="6" height="6"/></g>
<g transform="translate(132,418) scale(3.6666666666667)"><rect width="6" height="6"/></g>
<g transform="translate(198,418) scale(3.6666666666667)"><rect width="6" height="6"/></g>
<g transform="translate(220,418) scale(3.6666666666667)"><rect width="6" height="6"/></g>
<g transform="translate(242,418) scale(3.6666666666667)"><rect width="6" height="6"/></g>
<g transform="translate(264,418) scale(3.6666666666667)"><rect width="6" height="6"/></g>
<g transform="translate(352,418) scale(3.6666666666667)"><rect width="6" height="6"/></g>
<g transform="translate(418,418) scale(3.6666666666667)"><rect width="6" height="6"/></g>
<g transform="translate(462,418) scale(3.6666666666667)"><rect width="6" height="6"/></g>
<g transform="translate(506,418) scale(3.6666666666667)"><rect width="6" height="6"/></g>
<g transform="translate(572,418) scale(3.6666666666667)"><rect width="6" height="6"/></g>
<g transform="translate(682,418) scale(3.6666666666667)"><rect width="6" height="6"/></g>
<g transform="translate(726,418) scale(3.6666666666667)"><rect width="6" height="6"/></g>
<g transform="translate(748,418) scale(3.6666666666667)"><rect width="6" height="6"/></g>
<g transform="translate(792,418) scale(3.6666666666667)"><rect width="6" height="6"/></g>
<g transform="translate(814,418) scale(3.6666666666667)"><rect width="6" height="6"/></g>
<g transform="translate(836,418) scale(3.6666666666667)"><rect width="6" height="6"/></g>
<g transform="translate(902,418) scale(3.6666666666667)"><rect width="6" height="6"/></g>
<g transform="translate(924,418) scale(3.6666666666667)"><rect width="6" height="6"/></g>
<g transform="translate(44,440) scale(3.6666666666667)"><rect width="6" height="6"/></g>
<g transform="translate(88,440) scale(3.6666666666667)"><rect width="6" height="6"/></g>
<g transform="translate(132,440) scale(3.6666666666667)"><rect width="6" height="6"/></g>
<g transform="translate(176,440) scale(3.6666666666667)"><rect width="6" height="6"/></g>
<g transform="translate(220,440) scale(3.6666666666667)"><rect width="6" height="6"/></g>
<g transform="translate(242,440) scale(3.6666666666667)"><rect width="6" height="6"/></g>
<g transform="translate(264,440) scale(3.6666666666667)"><rect width="6" height="6"/></g>
<g transform="translate(330,440) scale(3.6666666666667)"><rect width="6" height="6"/></g>
<g transform="translate(396,440) scale(3.6666666666667)"><rect width="6" height="6"/></g>
<g transform="translate(484,440) scale(3.6666666666667)"><rect width="6" height="6"/></g>
<g transform="translate(572,440) scale(3.6666666666667)"><rect width="6" height="6"/></g>
<g transform="translate(594,440) scale(3.6666666666667)"><rect width="6" height="6"/></g>
<g transform="translate(616,440) scale(3.6666666666667)"><rect width="6" height="6"/></g>
<g transform="translate(638,440) scale(3.6666666666667)"><rect width="6" height="6"/></g>
<g transform="translate(660,440) scale(3.6666666666667)"><rect width="6" height="6"/></g>
<g transform="translate(682,440) scale(3.6666666666667)"><rect width="6" height="6"/></g>
<g transform="translate(792,440) scale(3.6666666666667)"><rect width="6" height="6"/></g>
<g transform="translate(836,440) scale(3.6666666666667)"><rect width="6" height="6"/></g>
<g transform="translate(880,440) scale(3.6666666666667)"><rect width="6" height="6"/></g>
<g transform="translate(44,462) scale(3.6666666666667)"><rect width="6" height="6"/></g>
<g transform="translate(66,462) scale(3.6666666666667)"><rect width="6" height="6"/></g>
<g transform="translate(88,462) scale(3.6666666666667)"><rect width="6" height="6"/></g>
<g transform="translate(110,462) scale(3.6666666666667)"><rect width="6" height="6"/></g>
<g transform="translate(198,462) scale(3.6666666666667)"><rect width="6" height="6"/></g>
<g transform="translate(242,462) scale(3.6666666666667)"><rect width="6" height="6"/></g>
<g transform="translate(286,462) scale(3.6666666666667)"><rect width="6" height="6"/></g>
<g transform="translate(308,462) scale(3.6666666666667)"><rect width="6" height="6"/></g>
<g transform="translate(330,462) scale(3.6666666666667)"><rect width="6" height="6"/></g>
<g transform="translate(374,462) scale(3.6666666666667)"><rect width="6" height="6"/></g>
<g transform="translate(396,462) scale(3.6666666666667)"><rect width="6" height="6"/></g>
<g transform="translate(528,462) scale(3.6666666666667)"><rect width="6" height="6"/></g>
<g transform="translate(616,462) scale(3.6666666666667)"><rect width="6" height="6"/></g>
<g transform="translate(660,462) scale(3.6666666666667)"><rect width="6" height="6"/></g>
<g transform="translate(682,462) scale(3.6666666666667)"><rect width="6" height="6"/></g>
<g transform="translate(704,462) scale(3.6666666666667)"><rect width="6" height="6"/></g>
<g transform="translate(748,462) scale(3.6666666666667)"><rect width="6" height="6"/></g>
<g transform="translate(770,462) scale(3.6666666666667)"><rect width="6" height="6"/></g>
<g transform="translate(792,462) scale(3.6666666666667)"><rect width="6" height="6"/></g>
<g transform="translate(836,462) scale(3.6666666666667)"><rect width="6" height="6"/></g>
<g transform="translate(858,462) scale(3.6666666666667)"><rect width="6" height="6"/></g>
<g transform="translate(902,462) scale(3.6666666666667)"><rect width="6" height="6"/></g>
<g transform="translate(924,462) scale(3.6666666666667)"><rect width="6" height="6"/></g>
<g transform="translate(44,484) scale(3.6666666666667)"><rect width="6" height="6"/></g>
<g transform="translate(66,484) scale(3.6666666666667)"><rect width="6" height="6"/></g>
<g transform="translate(110,484) scale(3.6666666666667)"><rect width="6" height="6"/></g>
<g transform="translate(132,484) scale(3.6666666666667)"><rect width="6" height="6"/></g>
<g transform="translate(176,484) scale(3.6666666666667)"><rect width="6" height="6"/></g>
<g transform="translate(198,484) scale(3.6666666666667)"><rect width="6" height="6"/></g>
<g transform="translate(220,484) scale(3.6666666666667)"><rect width="6" height="6"/></g>
<g transform="translate(242,484) scale(3.6666666666667)"><rect width="6" height="6"/></g>
<g transform="translate(264,484) scale(3.6666666666667)"><rect width="6" height="6"/></g>
<g transform="translate(330,484) scale(3.6666666666667)"><rect width="6" height="6"/></g>
<g transform="translate(374,484) scale(3.6666666666667)"><rect width="6" height="6"/></g>
<g transform="translate(396,484) scale(3.6666666666667)"><rect width="6" height="6"/></g>
<g transform="translate(506,484) scale(3.6666666666667)"><rect width="6" height="6"/></g>
<g transform="translate(550,484) scale(3.6666666666667)"><rect width="6" height="6"/></g>
<g transform="translate(594,484) scale(3.6666666666667)"><rect width="6" height="6"/></g>
<g transform="translate(616,484) scale(3.6666666666667)"><rect width="6" height="6"/></g>
<g transform="translate(770,484) scale(3.6666666666667)"><rect width="6" height="6"/></g>
<g transform="translate(814,484) scale(3.6666666666667)"><rect width="6" height="6"/></g>
<g transform="translate(880,484) scale(3.6666666666667)"><rect width="6" height="6"/></g>
<g transform="translate(924,484) scale(3.6666666666667)"><rect width="6" height="6"/></g>
<g transform="translate(44,506) scale(3.6666666666667)"><rect width="6" height="6"/></g>
<g transform="translate(66,506) scale(3.6666666666667)"><rect width="6" height="6"/></g>
<g transform="translate(110,506) scale(3.6666666666667)"><rect width="6" height="6"/></g>
<g transform="translate(154,506) scale(3.6666666666667)"><rect width="6" height="6"/></g>
<g transform="translate(198,506) scale(3.6666666666667)"><rect width="6" height="6"/></g>
<g transform="translate(242,506) scale(3.6666666666667)"><rect width="6" height="6"/></g>
<g transform="translate(264,506) scale(3.6666666666667)"><rect width="6" height="6"/></g>
<g transform="translate(330,506) scale(3.6666666666667)"><rect width="6" height="6"/></g>
<g transform="translate(352,506) scale(3.6666666666667)"><rect width="6" height="6"/></g>
<g transform="translate(396,506) scale(3.6666666666667)"><rect width="6" height="6"/></g>
<g transform="translate(484,506) scale(3.6666666666667)"><rect width="6" height="6"/></g>
<g transform="translate(506,506) scale(3.6666666666667)"><rect width="6" height="6"/></g>
<g transform="translate(528,506) scale(3.6666666666667)"><rect width="6" height="6"/></g>
<g transform="translate(550,506) scale(3.6666666666667)"><rect width="6" height="6"/></g>
<g transform="translate(594,506) scale(3.6666666666667)"><rect width="6" height="6"/></g>
<g transform="translate(616,506) scale(3.6666666666667)"><rect width="6" height="6"/></g>
<g transform="translate(704,506) scale(3.6666666666667)"><rect width="6" height="6"/></g>
<g transform="translate(726,506) scale(3.6666666666667)"><rect width="6" height="6"/></g>
<g transform="translate(748,506) scale(3.6666666666667)"><rect width="6" height="6"/></g>
<g transform="translate(770,506) scale(3.6666666666667)"><rect width="6" height="6"/></g>
<g transform="translate(792,506) scale(3.6666666666667)"><rect width="6" height="6"/></g>
<g transform="translate(836,506) scale(3.6666666666667)"><rect width="6" height="6"/></g>
<g transform="translate(858,506) scale(3.6666666666667)"><rect width="6" height="6"/></g>
<g transform="translate(902,506) scale(3.6666666666667)"><rect width="6" height="6"/></g>
<g transform="translate(924,506) scale(3.6666666666667)"><rect width="6" height="6"/></g>
<g transform="translate(44,528) scale(3.6666666666667)"><rect width="6" height="6"/></g>
<g transform="translate(66,528) scale(3.6666666666667)"><rect width="6" height="6"/></g>
<g transform="translate(154,528) scale(3.6666666666667)"><rect width="6" height="6"/></g>
<g transform="translate(176,528) scale(3.6666666666667)"><rect width="6" height="6"/></g>
<g transform="translate(198,528) scale(3.6666666666667)"><rect width="6" height="6"/></g>
<g transform="translate(242,528) scale(3.6666666666667)"><rect width="6" height="6"/></g>
<g transform="translate(330,528) scale(3.6666666666667)"><rect width="6" height="6"/></g>
<g transform="translate(352,528) scale(3.6666666666667)"><rect width="6" height="6"/></g>
<g transform="translate(418,528) scale(3.6666666666667)"><rect width="6" height="6"/></g>
<g transform="translate(462,528) scale(3.6666666666667)"><rect width="6" height="6"/></g>
<g transform="translate(506,528) scale(3.6666666666667)"><rect width="6" height="6"/></g>
<g transform="translate(528,528) scale(3.6666666666667)"><rect width="6" height="6"/></g>
<g transform="translate(572,528) scale(3.6666666666667)"><rect width="6" height="6"/></g>
<g transform="translate(638,528) scale(3.6666666666667)"><rect width="6" height="6"/></g>
<g transform="translate(682,528) scale(3.6666666666667)"><rect width="6" height="6"/></g>
<g transform="translate(748,528) scale(3.6666666666667)"><rect width="6" height="6"/></g>
<g transform="translate(792,528) scale(3.6666666666667)"><rect width="6" height="6"/></g>
<g transform="translate(814,528) scale(3.6666666666667)"><rect width="6" height="6"/></g>
<g transform="translate(836,528) scale(3.6666666666667)"><rect width="6" height="6"/></g>
<g transform="translate(858,528) scale(3.6666666666667)"><rect width="6" height="6"/></g>
<g transform="translate(880,528) scale(3.6666666666667)"><rect width="6" height="6"/></g>
<g transform="translate(66,550) scale(3.6666666666667)"><rect width="6" height="6"/></g>
<g transform="translate(132,550) scale(3.6666666666667)"><rect width="6" height="6"/></g>
<g transform="translate(198,550) scale(3.6666666666667)"><rect width="6" height="6"/></g>
<g transform="translate(220,550) scale(3.6666666666667)"><rect width="6" height="6"/></g>
<g transform="translate(242,550) scale(3.6666666666667)"><rect width="6" height="6"/></g>
<g transform="translate(264,550) scale(3.6666666666667)"><rect width="6" height="6"/></g>
<g transform="translate(308,550) scale(3.6666666666667)"><rect width="6" height="6"/></g>
<g transform="translate(330,550) scale(3.6666666666667)"><rect width="6" height="6"/></g>
<g transform="translate(374,550) scale(3.6666666666667)"><rect width="6" height="6"/></g>
<g transform="translate(418,550) scale(3.6666666666667)"><rect width="6" height="6"/></g>
<g transform="translate(440,550) scale(3.6666666666667)"><rect width="6" height="6"/></g>
<g transform="translate(462,550) scale(3.6666666666667)"><rect width="6" height="6"/></g>
<g transform="translate(484,550) scale(3.6666666666667)"><rect width="6" height="6"/></g>
<g transform="translate(506,550) scale(3.6666666666667)"><rect width="6" height="6"/></g>
<g transform="translate(528,550) scale(3.6666666666667)"><rect width="6" height="6"/></g>
<g transform="translate(550,550) scale(3.6666666666667)"><rect width="6" height="6"/></g>
<g transform="translate(594,550) scale(3.6666666666667)"><rect width="6" height="6"/></g>
<g transform="translate(660,550) scale(3.6666666666667)"><rect width="6" height="6"/></g>
<g transform="translate(726,550) scale(3.6666666666667)"><rect width="6" height="6"/></g>
<g transform="translate(836,550) scale(3.6666666666667)"><rect width="6" height="6"/></g>
<g transform="translate(44,572) scale(3.6666666666667)"><rect width="6" height="6"/></g>
<g transform="translate(66,572) scale(3.6666666666667)"><rect width="6" height="6"/></g>
<g transform="translate(88,572) scale(3.6666666666667)"><rect width="6" height="6"/></g>
<g transform="translate(132,572) scale(3.6666666666667)"><rect width="6" height="6"/></g>
<g transform="translate(176,572) scale(3.6666666666667)"><rect width="6" height="6"/></g>
<g transform="translate(308,572) scale(3.6666666666667)"><rect width="6" height="6"/></g>
<g transform="translate(330,572) scale(3.6666666666667)"><rect width="6" height="6"/></g>
<g transform="translate(352,572) scale(3.6666666666667)"><rect width="6" height="6"/></g>
<g transform="translate(396,572) scale(3.6666666666667)"><rect width="6" height="6"/></g>
<g transform="translate(418,572) scale(3.6666666666667)"><rect width="6" height="6"/></g>
<g transform="translate(440,572) scale(3.6666666666667)"><rect width="6" height="6"/></g>
<g transform="translate(462,572) scale(3.6666666666667)"><rect width="6" height="6"/></g>
<g transform="translate(484,572) scale(3.6666666666667)"><rect width="6" height="6"/></g>
<g transform="translate(572,572) scale(3.6666666666667)"><rect width="6" height="6"/></g>
<g transform="translate(682,572) scale(3.6666666666667)"><rect width="6" height="6"/></g>
<g transform="translate(814,572) scale(3.6666666666667)"><rect width="6" height="6"/></g>
<g transform="translate(858,572) scale(3.6666666666667)"><rect width="6" height="6"/></g>
<g transform="translate(880,572) scale(3.6666666666667)"><rect width="6" height="6"/></g>
<g transform="translate(44,594) scale(3.6666666666667)"><rect width="6" height="6"/></g>
<g transform="translate(110,594) scale(3.6666666666667)"><rect width="6" height="6"/></g>
<g transform="translate(154,594) scale(3.6666666666667)"><rect width="6" height="6"/></g>
<g transform="translate(220,594) scale(3.6666666666667)"><rect width="6" height="6"/></g>
<g transform="translate(242,594) scale(3.6666666666667)"><rect width="6" height="6"/></g>
<g transform="translate(264,594) scale(3.6666666666667)"><rect width="6" height="6"/></g>
<g transform="translate(286,594) scale(3.6666666666667)"><rect width="6" height="6"/></g>
<g transform="translate(330,594) scale(3.6666666666667)"><rect width="6" height="6"/></g>
<g transform="translate(352,594) scale(3.6666666666667)"><rect width="6" height="6"/></g>
<g transform="translate(396,594) scale(3.6666666666667)"><rect width="6" height="6"/></g>
<g transform="translate(418,594) scale(3.6666666666667)"><rect width="6" height="6"/></g>
<g transform="translate(440,594) scale(3.6666666666667)"><rect width="6" height="6"/></g>
<g transform="translate(506,594) scale(3.6666666666667)"><rect width="6" height="6"/></g>
<g transform="translate(528,594) scale(3.6666666666667)"><rect width="6" height="6"/></g>
<g transform="translate(572,594) scale(3.6666666666667)"><rect width="6" height="6"/></g>
<g transform="translate(594,594) scale(3.6666666666667)"><rect width="6" height="6"/></g>
<g transform="translate(660,594) scale(3.6666666666667)"><rect width="6" height="6"/></g>
<g transform="translate(682,594) scale(3.6666666666667)"><rect width="6" height="6"/></g>
<g transform="translate(726,594) scale(3.6666666666667)"><rect width="6" height="6"/></g>
<g transform="translate(770,594) scale(3.6666666666667)"><rect width="6" height="6"/></g>
<g transform="translate(792,594) scale(3.6666666666667)"><rect width="6" height="6"/></g>
<g transform="translate(814,594) scale(3.6666666666667)"><rect width="6" height="6"/></g>
<g transform="translate(836,594) scale(3.6666666666667)"><rect width="6" height="6"/></g>
<g transform="translate(858,594) scale(3.6666666666667)"><rect width="6" height="6"/></g>
<g transform="translate(924,594) scale(3.6666666666667)"><rect width="6" height="6"/></g>
<g transform="translate(132,616) scale(3.6666666666667)"><rect width="6" height="6"/></g>
<g transform="translate(176,616) scale(3.6666666666667)"><rect width="6" height="6"/></g>
<g transform="translate(198,616) scale(3.6666666666667)"><rect width="6" height="6"/></g>
<g transform="translate(264,616) scale(3.6666666666667)"><rect width="6" height="6"/></g>
<g transform="translate(308,616) scale(3.6666666666667)"><rect width="6" height="6"/></g>
<g transform="translate(330,616) scale(3.6666666666667)"><rect width="6" height="6"/></g>
<g transform="translate(374,616) scale(3.6666666666667)"><rect width="6" height="6"/></g>
<g transform="translate(418,616) scale(3.6666666666667)"><rect width="6" height="6"/></g>
<g transform="translate(484,616) scale(3.6666666666667)"><rect width="6" height="6"/></g>
<g transform="translate(528,616) scale(3.6666666666667)"><rect width="6" height="6"/></g>
<g transform="translate(572,616) scale(3.6666666666667)"><rect width="6" height="6"/></g>
<g transform="translate(594,616) scale(3.6666666666667)"><rect width="6" height="6"/></g>
<g transform="translate(616,616) scale(3.6666666666667)"><rect width="6" height="6"/></g>
<g transform="translate(638,616) scale(3.6666666666667)"><rect width="6" height="6"/></g>
<g transform="translate(682,616) scale(3.6666666666667)"><rect width="6" height="6"/></g>
<g transform="translate(748,616) scale(3.6666666666667)"><rect width="6" height="6"/></g>
<g transform="translate(770,616) scale(3.6666666666667)"><rect width="6" height="6"/></g>
<g transform="translate(814,616) scale(3.6666666666667)"><rect width="6" height="6"/></g>
<g transform="translate(902,616) scale(3.6666666666667)"><rect width="6" height="6"/></g>
<g transform="translate(66,638) scale(3.6666666666667)"><rect width="6" height="6"/></g>
<g transform="translate(132,638) scale(3.6666666666667)"><rect width="6" height="6"/></g>
<g transform="translate(264,638) scale(3.6666666666667)"><rect width="6" height="6"/></g>
<g transform="translate(352,638) scale(3.6666666666667)"><rect width="6" height="6"/></g>
<g transform="translate(440,638) scale(3.6666666666667)"><rect width="6" height="6"/></g>
<g transform="translate(484,638) scale(3.6666666666667)"><rect width="6" height="6"/></g>
<g transform="translate(528,638) scale(3.6666666666667)"><rect width="6" height="6"/></g>
<g transform="translate(660,638) scale(3.6666666666667)"><rect width="6" height="6"/></g>
<g transform="translate(726,638) scale(3.6666666666667)"><rect width="6" height="6"/></g>
<g transform="translate(748,638) scale(3.6666666666667)"><rect width="6" height="6"/></g>
<g transform="translate(814,638) scale(3.6666666666667)"><rect width="6" height="6"/></g>
<g transform="translate(858,638) scale(3.6666666666667)"><rect width="6" height="6"/></g>
<g transform="translate(902,638) scale(3.6666666666667)"><rect width="6" height="6"/></g>
<g transform="translate(44,660) scale(3.6666666666667)"><rect width="6" height="6"/></g>
<g transform="translate(66,660) scale(3.6666666666667)"><rect width="6" height="6"/></g>
<g transform="translate(110,660) scale(3.6666666666667)"><rect width="6" height="6"/></g>
<g transform="translate(176,660) scale(3.6666666666667)"><rect width="6" height="6"/></g>
<g transform="translate(198,660) scale(3.6666666666667)"><rect width="6" height="6"/></g>
<g transform="translate(242,660) scale(3.6666666666667)"><rect width="6" height="6"/></g>
<g transform="translate(286,660) scale(3.6666666666667)"><rect width="6" height="6"/></g>
<g transform="translate(330,660) scale(3.6666666666667)"><rect width="6" height="6"/></g>
<g transform="translate(352,660) scale(3.6666666666667)"><rect width="6" height="6"/></g>
<g transform="translate(374,660) scale(3.6666666666667)"><rect width="6" height="6"/></g>
<g transform="translate(418,660) scale(3.6666666666667)"><rect width="6" height="6"/></g>
<g transform="translate(440,660) scale(3.6666666666667)"><rect width="6" height="6"/></g>
<g transform="translate(484,660) scale(3.6666666666667)"><rect width="6" height="6"/></g>
<g transform="translate(550,660) scale(3.6666666666667)"><rect width="6" height="6"/></g>
<g transform="translate(594,660) scale(3.6666666666667)"><rect width="6" height="6"/></g>
<g transform="translate(682,660) scale(3.6666666666667)"><rect width="6" height="6"/></g>
<g transform="translate(726,660) scale(3.6666666666667)"><rect width="6" height="6"/></g>
<g transform="translate(748,660) scale(3.6666666666667)"><rect width="6" height="6"/></g>
<g transform="translate(858,660) scale(3.6666666666667)"><rect width="6" height="6"/></g>
<g transform="translate(880,660) scale(3.6666666666667)"><rect width="6" height="6"/></g>
<g transform="translate(902,660) scale(3.6666666666667)"><rect width="6" height="6"/></g>
<g transform="translate(924,660) scale(3.6666666666667)"><rect width="6" height="6"/></g>
<g transform="translate(44,682) scale(3.6666666666667)"><rect width="6" height="6"/></g>
<g transform="translate(132,682) scale(3.6666666666667)"><rect width="6" height="6"/></g>
<g transform="translate(198,682) scale(3.6666666666667)"><rect width="6" height="6"/></g>
<g transform="translate(242,682) scale(3.6666666666667)"><rect width="6" height="6"/></g>
<g transform="translate(264,682) scale(3.6666666666667)"><rect width="6" height="6"/></g>
<g transform="translate(308,682) scale(3.6666666666667)"><rect width="6" height="6"/></g>
<g transform="translate(330,682) scale(3.6666666666667)"><rect width="6" height="6"/></g>
<g transform="translate(352,682) scale(3.6666666666667)"><rect width="6" height="6"/></g>
<g transform="translate(374,682) scale(3.6666666666667)"><rect width="6" height="6"/></g>
<g transform="translate(396,682) scale(3.6666666666667)"><rect width="6" height="6"/></g>
<g transform="translate(418,682) scale(3.6666666666667)"><rect width="6" height="6"/></g>
<g transform="translate(462,682) scale(3.6666666666667)"><rect width="6" height="6"/></g>
<g transform="translate(506,682) scale(3.6666666666667)"><rect width="6" height="6"/></g>
<g transform="translate(528,682) scale(3.6666666666667)"><rect width="6" height="6"/></g>
<g transform="translate(550,682) scale(3.6666666666667)"><rect width="6" height="6"/></g>
<g transform="translate(572,682) scale(3.6666666666667)"><rect width="6" height="6"/></g>
<g transform="translate(638,682) scale(3.6666666666667)"><rect width="6" height="6"/></g>
<g transform="translate(660,682) scale(3.6666666666667)"><rect width="6" height="6"/></g>
<g transform="translate(704,682) scale(3.6666666666667)"><rect width="6" height="6"/></g>
<g transform="translate(726,682) scale(3.6666666666667)"><rect width="6" height="6"/></g>
<g transform="translate(770,682) scale(3.6666666666667)"><rect width="6" height="6"/></g>
<g transform="translate(792,682) scale(3.6666666666667)"><rect width="6" height="6"/></g>
<g transform="translate(814,682) scale(3.6666666666667)"><rect width="6" height="6"/></g>
<g transform="translate(836,682) scale(3.6666666666667)"><rect width="6" height="6"/></g>
<g transform="translate(858,682) scale(3.6666666666667)"><rect width="6" height="6"/></g>
<g transform="translate(902,682) scale(3.6666666666667)"><rect width="6" height="6"/></g>
<g transform="translate(924,682) scale(3.6666666666667)"><rect width="6" height="6"/></g>
<g transform="translate(44,704) scale(3.6666666666667)"><rect width="6" height="6"/></g>
<g transform="translate(88,704) scale(3.6666666666667)"><rect width="6" height="6"/></g>
<g transform="translate(110,704) scale(3.6666666666667)"><rect width="6" height="6"/></g>
<g transform="translate(132,704) scale(3.6666666666667)"><rect width="6" height="6"/></g>
<g transform="translate(154,704) scale(3.6666666666667)"><rect width="6" height="6"/></g>
<g transform="translate(176,704) scale(3.6666666666667)"><rect width="6" height="6"/></g>
<g transform="translate(220,704) scale(3.6666666666667)"><rect width="6" height="6"/></g>
<g transform="translate(286,704) scale(3.6666666666667)"><rect width="6" height="6"/></g>
<g transform="translate(352,704) scale(3.6666666666667)"><rect width="6" height="6"/></g>
<g transform="translate(396,704) scale(3.6666666666667)"><rect width="6" height="6"/></g>
<g transform="translate(418,704) scale(3.6666666666667)"><rect width="6" height="6"/></g>
<g transform="translate(550,704) scale(3.6666666666667)"><rect width="6" height="6"/></g>
<g transform="translate(572,704) scale(3.6666666666667)"><rect width="6" height="6"/></g>
<g transform="translate(616,704) scale(3.6666666666667)"><rect width="6" height="6"/></g>
<g transform="translate(682,704) scale(3.6666666666667)"><rect width="6" height="6"/></g>
<g transform="translate(704,704) scale(3.6666666666667)"><rect width="6" height="6"/></g>
<g transform="translate(770,704) scale(3.6666666666667)"><rect width="6" height="6"/></g>
<g transform="translate(792,704) scale(3.6666666666667)"><rect width="6" height="6"/></g>
<g transform="translate(836,704) scale(3.6666666666667)"><rect width="6" height="6"/></g>
<g transform="translate(858,704) scale(3.6666666666667)"><rect width="6" height="6"/></g>
<g transform="translate(44,726) scale(3.6666666666667)"><rect width="6" height="6"/></g>
<g transform="translate(110,726) scale(3.6666666666667)"><rect width="6" height="6"/></g>
<g transform="translate(154,726) scale(3.6666666666667)"><rect width="6" height="6"/></g>
<g transform="translate(198,726) scale(3.6666666666667)"><rect width="6" height="6"/></g>
<g transform="translate(242,726) scale(3.6666666666667)"><rect width="6" height="6"/></g>
<g transform="translate(264,726) scale(3.6666666666667)"><rect width="6" height="6"/></g>
<g transform="translate(308,726) scale(3.6666666666667)"><rect width="6" height="6"/></g>
<g transform="translate(352,726) scale(3.6666666666667)"><rect width="6" height="6"/></g>
<g transform="translate(374,726) scale(3.6666666666667)"><rect width="6" height="6"/></g>
<g transform="translate(396,726) scale(3.6666666666667)"><rect width="6" height="6"/></g>
<g transform="translate(418,726) scale(3.6666666666667)"><rect width="6" height="6"/></g>
<g transform="translate(440,726) scale(3.6666666666667)"><rect width="6" height="6"/></g>
<g transform="translate(462,726) scale(3.6666666666667)"><rect width="6" height="6"/></g>
<g transform="translate(484,726) scale(3.6666666666667)"><rect width="6" height="6"/></g>
<g transform="translate(506,726) scale(3.6666666666667)"><rect width="6" height="6"/></g>
<g transform="translate(594,726) scale(3.6666666666667)"><rect width="6" height="6"/></g>
<g transform="translate(660,726) scale(3.6666666666667)"><rect width="6" height="6"/></g>
<g transform="translate(704,726) scale(3.6666666666667)"><rect width="6" height="6"/></g>
<g transform="translate(726,726) scale(3.6666666666667)"><rect width="6" height="6"/></g>
<g transform="translate(770,726) scale(3.6666666666667)"><rect width="6" height="6"/></g>
<g transform="translate(792,726) scale(3.6666666666667)"><rect width="6" height="6"/></g>
<g transform="translate(814,726) scale(3.6666666666667)"><rect width="6" height="6"/></g>
<g transform="translate(836,726) scale(3.6666666666667)"><rect width="6" height="6"/></g>
<g transform="translate(858,726) scale(3.6666666666667)"><rect width="6" height="6"/></g>
<g transform="translate(924,726) scale(3.6666666666667)"><rect width="6" height="6"/></g>
<g transform="translate(44,748) scale(3.6666666666667)"><rect width="6" height="6"/></g>
<g transform="translate(88,748) scale(3.6666666666667)"><rect width="6" height="6"/></g>
<g transform="translate(132,748) scale(3.6666666666667)"><rect width="6" height="6"/></g>
<g transform="translate(154,748) scale(3.6666666666667)"><rect width="6" height="6"/></g>
<g transform="translate(176,748) scale(3.6666666666667)"><rect width="6" height="6"/></g>
<g transform="translate(242,748) scale(3.6666666666667)"><rect width="6" height="6"/></g>
<g transform="translate(264,748) scale(3.6666666666667)"><rect width="6" height="6"/></g>
<g transform="translate(286,748) scale(3.6666666666667)"><rect width="6" height="6"/></g>
<g transform="translate(330,748) scale(3.6666666666667)"><rect width="6" height="6"/></g>
<g transform="translate(374,748) scale(3.6666666666667)"><rect width="6" height="6"/></g>
<g transform="translate(440,748) scale(3.6666666666667)"><rect width="6" height="6"/></g>
<g transform="translate(528,748) scale(3.6666666666667)"><rect width="6" height="6"/></g>
<g transform="translate(550,748) scale(3.6666666666667)"><rect width="6" height="6"/></g>
<g transform="translate(572,748) scale(3.6666666666667)"><rect width="6" height="6"/></g>
<g transform="translate(594,748) scale(3.6666666666667)"><rect width="6" height="6"/></g>
<g transform="translate(682,748) scale(3.6666666666667)"><rect width="6" height="6"/></g>
<g transform="translate(748,748) scale(3.6666666666667)"><rect width="6" height="6"/></g>
<g transform="translate(770,748) scale(3.6666666666667)"><rect width="6" height="6"/></g>
<g transform="translate(792,748) scale(3.6666666666667)"><rect width="6" height="6"/></g>
<g transform="translate(814,748) scale(3.6666666666667)"><rect width="6" height="6"/></g>
<g transform="translate(836,748) scale(3.6666666666667)"><rect width="6" height="6"/></g>
<g transform="translate(880,748) scale(3.6666666666667)"><rect width="6" height="6"/></g>
<g transform="translate(902,748) scale(3.6666666666667)"><rect width="6" height="6"/></g>
<g transform="translate(220,770) scale(3.6666666666667)"><rect width="6" height="6"/></g>
<g transform="translate(264,770) scale(3.6666666666667)"><rect width="6" height="6"/></g>
<g transform="translate(308,770) scale(3.6666666666667)"><rect width="6" height="6"/></g>
<g transform="translate(440,770) scale(3.6666666666667)"><rect width="6" height="6"/></g>
<g transform="translate(528,770) scale(3.6666666666667)"><rect width="6" height="6"/></g>
<g transform="translate(550,770) scale(3.6666666666667)"><rect width="6" height="6"/></g>
<g transform="translate(572,770) scale(3.6666666666667)"><rect width="6" height="6"/></g>
<g transform="translate(616,770) scale(3.6666666666667)"><rect width="6" height="6"/></g>
<g transform="translate(660,770) scale(3.6666666666667)"><rect width="6" height="6"/></g>
<g transform="translate(704,770) scale(3.6666666666667)"><rect width="6" height="6"/></g>
<g transform="translate(748,770) scale(3.6666666666667)"><rect width="6" height="6"/></g>
<g transform="translate(836,770) scale(3.6666666666667)"><rect width="6" height="6"/></g>
<g transform="translate(858,770) scale(3.6666666666667)"><rect width="6" height="6"/></g>
<g transform="translate(880,770) scale(3.6666666666667)"><rect width="6" height="6"/></g>
<g transform="translate(902,770) scale(3.6666666666667)"><rect width="6" height="6"/></g>
<g transform="translate(924,770) scale(3.6666666666667)"><rect width="6" height="6"/></g>
<g transform="translate(242,792) scale(3.6666666666667)"><rect width="6" height="6"/></g>
<g transform="translate(264,792) scale(3.6666666666667)"><rect width="6" height="6"/></g>
<g transform="translate(286,792) scale(3.6666666666667)"><rect width="6" height="6"/></g>
<g transform="translate(330,792) scale(3.6666666666667)"><rect width="6" height="6"/></g>
<g transform="translate(374,792) scale(3.6666666666667)"><rect width="6" height="6"/></g>
<g transform="translate(440,792) scale(3.6666666666667)"><rect width="6" height="6"/></g>
<g transform="translate(462,792) scale(3.6666666666667)"><rect width="6" height="6"/></g>
<g transform="translate(594,792) scale(3.6666666666667)"><rect width="6" height="6"/></g>
<g transform="translate(638,792) scale(3.6666666666667)"><rect width="6" height="6"/></g>
<g transform="translate(704,792) scale(3.6666666666667)"><rect width="6" height="6"/></g>
<g transform="translate(726,792) scale(3.6666666666667)"><rect width="6" height="6"/></g>
<g transform="translate(748,792) scale(3.6666666666667)"><rect width="6" height="6"/></g>
<g transform="translate(792,792) scale(3.6666666666667)"><rect width="6" height="6"/></g>
<g transform="translate(836,792) scale(3.6666666666667)"><rect width="6" height="6"/></g>
<g transform="translate(242,814) scale(3.6666666666667)"><rect width="6" height="6"/></g>
<g transform="translate(264,814) scale(3.6666666666667)"><rect width="6" height="6"/></g>
<g transform="translate(286,814) scale(3.6666666666667)"><rect width="6" height="6"/></g>
<g transform="translate(308,814) scale(3.6666666666667)"><rect width="6" height="6"/></g>
<g transform="translate(330,814) scale(3.6666666666667)"><rect width="6" height="6"/></g>
<g transform="translate(418,814) scale(3.6666666666667)"><rect width="6" height="6"/></g>
<g transform="translate(462,814) scale(3.6666666666667)"><rect width="6" height="6"/></g>
<g transform="translate(506,814) scale(3.6666666666667)"><rect width="6" height="6"/></g>
<g transform="translate(594,814) scale(3.6666666666667)"><rect width="6" height="6"/></g>
<g transform="translate(638,814) scale(3.6666666666667)"><rect width="6" height="6"/></g>
<g transform="translate(660,814) scale(3.6666666666667)"><rect width="6" height="6"/></g>
<g transform="translate(726,814) scale(3.6666666666667)"><rect width="6" height="6"/></g>
<g transform="translate(748,814) scale(3.6666666666667)"><rect width="6" height="6"/></g>
<g transform="translate(836,814) scale(3.6666666666667)"><rect width="6" height="6"/></g>
<g transform="translate(858,814) scale(3.6666666666667)"><rect width="6" height="6"/></g>
<g transform="translate(220,836) scale(3.6666666666667)"><rect width="6" height="6"/></g>
<g transform="translate(242,836) scale(3.6666666666667)"><rect width="6" height="6"/></g>
<g transform="translate(308,836) scale(3.6666666666667)"><rect width="6" height="6"/></g>
<g transform="translate(330,836) scale(3.6666666666667)"><rect width="6" height="6"/></g>
<g transform="translate(440,836) scale(3.6666666666667)"><rect width="6" height="6"/></g>
<g transform="translate(462,836) scale(3.6666666666667)"><rect width="6" height="6"/></g>
<g transform="translate(616,836) scale(3.6666666666667)"><rect width="6" height="6"/></g>
<g transform="translate(638,836) scale(3.6666666666667)"><rect width="6" height="6"/></g>
<g transform="translate(704,836) scale(3.6666666666667)"><rect width="6" height="6"/></g>
<g transform="translate(748,836) scale(3.6666666666667)"><rect width="6" height="6"/></g>
<g transform="translate(770,836) scale(3.6666666666667)"><rect width="6" height="6"/></g>
<g transform="translate(792,836) scale(3.6666666666667)"><rect width="6" height="6"/></g>
<g transform="translate(814,836) scale(3.6666666666667)"><rect width="6" height="6"/></g>
<g transform="translate(836,836) scale(3.6666666666667)"><rect width="6" height="6"/></g>
<g transform="translate(880,836) scale(3.6666666666667)"><rect width="6" height="6"/></g>
<g transform="translate(902,836) scale(3.6666666666667)"><rect width="6" height="6"/></g>
<g transform="translate(924,836) scale(3.6666666666667)"><rect width="6" height="6"/></g>
<g transform="translate(220,858) scale(3.6666666666667)"><rect width="6" height="6"/></g>
<g transform="translate(286,858) scale(3.6666666666667)"><rect width="6" height="6"/></g>
<g transform="translate(330,858) scale(3.6666666666667)"><rect width="6" height="6"/></g>
<g transform="translate(352,858) scale(3.6666666666667)"><rect width="6" height="6"/></g>
<g transform="translate(396,858) scale(3.6666666666667)"><rect width="6" height="6"/></g>
<g transform="translate(418,858) scale(3.6666666666667)"><rect width="6" height="6"/></g>
<g transform="translate(462,858) scale(3.6666666666667)"><rect width="6" height="6"/></g>
<g transform="translate(506,858) scale(3.6666666666667)"><rect width="6" height="6"/></g>
<g transform="translate(528,858) scale(3.6666666666667)"><rect width="6" height="6"/></g>
<g transform="translate(550,858) scale(3.6666666666667)"><rect width="6" height="6"/></g>
<g transform="translate(572,858) scale(3.6666666666667)"><rect width="6" height="6"/></g>
<g transform="translate(660,858) scale(3.6666666666667)"><rect width="6" height="6"/></g>
<g transform="translate(726,858) scale(3.6666666666667)"><rect width="6" height="6"/></g>
<g transform="translate(770,858) scale(3.6666666666667)"><rect width="6" height="6"/></g>
<g transform="translate(814,858) scale(3.6666666666667)"><rect width="6" height="6"/></g>
<g transform="translate(924,858) scale(3.6666666666667)"><rect width="6" height="6"/></g>
<g transform="translate(220,880) scale(3.6666666666667)"><rect width="6" height="6"/></g>
<g transform="translate(242,880) scale(3.6666666666667)"><rect width="6" height="6"/></g>
<g transform="translate(308,880) scale(3.6666666666667)"><rect width="6" height="6"/></g>
<g transform="translate(352,880) scale(3.6666666666667)"><rect width="6" height="6"/></g>
<g transform="translate(396,880) scale(3.6666666666667)"><rect width="6" height="6"/></g>
<g transform="translate(462,880) scale(3.6666666666667)"><rect width="6" height="6"/></g>
<g transform="translate(484,880) scale(3.6666666666667)"><rect width="6" height="6"/></g>
<g transform="translate(506,880) scale(3.6666666666667)"><rect width="6" height="6"/></g>
<g transform="translate(638,880) scale(3.6666666666667)"><rect width="6" height="6"/></g>
<g transform="translate(660,880) scale(3.6666666666667)"><rect width="6" height="6"/></g>
<g transform="translate(682,880) scale(3.6666666666667)"><rect width="6" height="6"/></g>
<g transform="translate(726,880) scale(3.6666666666667)"><rect width="6" height="6"/></g>
<g transform="translate(770,880) scale(3.6666666666667)"><rect width="6" height="6"/></g>
<g transform="translate(792,880) scale(3.6666666666667)"><rect width="6" height="6"/></g>
<g transform="translate(814,880) scale(3.6666666666667)"><rect width="6" height="6"/></g>
<g transform="translate(836,880) scale(3.6666666666667)"><rect width="6" height="6"/></g>
<g transform="translate(880,880) scale(3.6666666666667)"><rect width="6" height="6"/></g>
<g transform="translate(902,880) scale(3.6666666666667)"><rect width="6" height="6"/></g>
<g transform="translate(242,902) scale(3.6666666666667)"><rect width="6" height="6"/></g>
<g transform="translate(286,902) scale(3.6666666666667)"><rect width="6" height="6"/></g>
<g transform="translate(330,902) scale(3.6666666666667)"><rect width="6" height="6"/></g>
<g transform="translate(396,902) scale(3.6666666666667)"><rect width="6" height="6"/></g>
<g transform="translate(418,902) scale(3.6666666666667)"><rect width="6" height="6"/></g>
<g transform="translate(506,902) scale(3.6666666666667)"><rect width="6" height="6"/></g>
<g transform="translate(550,902) scale(3.6666666666667)"><rect width="6" height="6"/></g>
<g transform="translate(572,902) scale(3.6666666666667)"><rect width="6" height="6"/></g>
<g transform="translate(616,902) scale(3.6666666666667)"><rect width="6" height="6"/></g>
<g transform="translate(638,902) scale(3.6666666666667)"><rect width="6" height="6"/></g>
<g transform="translate(748,902) scale(3.6666666666667)"><rect width="6" height="6"/></g>
<g transform="translate(792,902) scale(3.6666666666667)"><rect width="6" height="6"/></g>
<g transform="translate(836,902) scale(3.6666666666667)"><rect width="6" height="6"/></g>
<g transform="translate(858,902) scale(3.6666666666667)"><rect width="6" height="6"/></g>
<g transform="translate(902,902) scale(3.6666666666667)"><rect width="6" height="6"/></g>
<g transform="translate(242,924) scale(3.6666666666667)"><rect width="6" height="6"/></g>
<g transform="translate(264,924) scale(3.6666666666667)"><rect width="6" height="6"/></g>
<g transform="translate(286,924) scale(3.6666666666667)"><rect width="6" height="6"/></g>
<g transform="translate(308,924) scale(3.6666666666667)"><rect width="6" height="6"/></g>
<g transform="translate(330,924) scale(3.6666666666667)"><rect width="6" height="6"/></g>
<g transform="translate(352,924) scale(3.6666666666667)"><rect width="6" height="6"/></g>
<g transform="translate(440,924) scale(3.6666666666667)"><rect width="6" height="6"/></g>
<g transform="translate(462,924) scale(3.6666666666667)"><rect width="6" height="6"/></g>
<g transform="translate(528,924) scale(3.6666666666667)"><rect width="6" height="6"/></g>
<g transform="translate(550,924) scale(3.6666666666667)"><rect width="6" height="6"/></g>
<g transform="translate(616,924) scale(3.6666666666667)"><rect width="6" height="6"/></g>
<g transform="translate(682,924) scale(3.6666666666667)"><rect width="6" height="6"/></g>
<g transform="translate(704,924) scale(3.6666666666667)"><rect width="6" height="6"/></g>
<g transform="translate(726,924) scale(3.6666666666667)"><rect width="6" height="6"/></g>
<g transform="translate(770,924) scale(3.6666666666667)"><rect width="6" height="6"/></g>
<g transform="translate(792,924) scale(3.6666666666667)"><rect width="6" height="6"/></g>
<g transform="translate(814,924) scale(3.6666666666667)"><rect width="6" height="6"/></g>
<g transform="translate(836,924) scale(3.6666666666667)"><rect width="6" height="6"/></g>
<g transform="translate(880,924) scale(3.6666666666667)"><rect width="6" height="6"/></g>
</g></mask></defs>
<rect width="990" height="990" fill="#ffffff" x="0" y="0" />
<rect x="0" y="0" width="990" height="990" mask="url(#qrmask)" fill="#000000" />
<g transform="translate(44,44)"  fill="#000000"><g transform="scale(11)"><path d="M0,0v14h14V0H0z M12,12H2V2h10V12z"/></g></g>
<g transform="translate(792,44)"  fill="#000000"><g transform="scale(11)"><path d="M0,0v14h14V0H0z M12,12H2V2h10V12z"/></g></g>
<g transform="translate(44,792)"  fill="#000000"><g transform="scale(11)"><path d="M0,0v14h14V0H0z M12,12H2V2h10V12z"/></g></g>
<g transform="translate(88,88)"  fill="#000000"><g transform="scale(11)"><rect width="6" height="6"/></g></g>
<g transform="translate(836,88)"  fill="#000000"><g transform="scale(11)"><rect width="6" height="6"/></g></g>
<g transform="translate(88,836)"  fill="#000000"><g transform="scale(11)"><rect width="6" height="6"/></g></g>
</svg>