<?xml version="1.0" encoding="utf-8"?>
<!DOCTYPE svg PUBLIC "-//W3C//DTD SVG 20010904//EN" "http://www.w3.org/TR/2001/REC-SVG-20010904/DTD/svg10.dtd">
<svg xmlns="http://www.w3.org/2000/svg" xml:space="preserve" xmlns:xlink="http://www.w3.org/1999/xlink" width="980" height="980" viewBox="0 0 980 980">
<defs>
<mask id="qrmask"><g fill="#ffffff">
<g transform="translate(200,40) scale(3.3333333333333)"><rect width="6" height="6"/></g>
<g transform="translate(220,40) scale(3.3333333333333)"><rect width="6" height="6"/></g>
<g transform="translate(240,40) scale(3.3333333333333)"><rect width="6" height="6"/></g>
<g transform="translate(260,40) scale(3.3333333333333)"><rect width="6" height="6"/></g>
<g transform="translate(280,40) scale(3.3333333333333)"><rect width="6" height="6"/></g>
<g transform="translate(340,40) scale(3.3333333333333)"><rect width="6" height="6"/></g>
<g transform="translate(480,40) scale(3.3333333333333)"><rect width="6" height="6"/></g>
<g transform="translate(500,40) scale(3.3333333333333)"><rect width="6" height="6"/></g>
<g transform="translate(520,40) scale(3.3333333333333)"><rect width="6" height="6"/></g>
<g transform="translate(560,40) scale(3.3333333333333)"><rect width="6" height="6"/></g>
<g transform="translate(640,40) scale(3.3333333333333)"><rect width="6" height="6"/></g>
<g transform="translate(660,40) scale(3.3333333333333)"><rect width="6" height="6"/></g>
<g transform="translate(680,40) scale(3.3333333333333)"><rect width="6" height="6"/></g>
<g transform="translate(700,40) scale(3.3333333333333)"><rect width="6" height="6"/></g>
<g transform="translate(760,40) scale(3.3333333333333)"><rect width="6" height="6"/></g>
<g transform="translate(200,60) scale(3.3333333333333)"><rect width="6" height="6"/></g>
<g transform="translate(220,60) scale(3.3333333333333)"><rect width="6" height="6"/></g>
<g transform="translate(260,60) scale(3.3333333333333)"><rect width="6" height="6"/></g>
<g transform="translate(300,60) scale(3.3333333333333)"><rect width="6" height="6"/></g>
<g transform="translate(360,60) scale(3.3333333333333)"><rect width="6" height="6"/></g>
<g transform="translate(380,60) scale(3.3333333333333)"><rect width="6" height="6"/></g>
<g transform="translate(420,60) scale(3.3333333333333)"><rect width="6" height="6"/></g>
<g transform="translate(440,60) scale(3.3333333333333)"><rect width="6" height="6"/></g>
<g transform="translate(480,60) scale(3.3333333333333)"><rect width="6" height="6"/></g>
<g transform="translate(540,60) scale(3.3333333333333)"><rect width="6" height="6"/></g>
<g transform="translate(580,60) scale(3.3333333333333)"><rect width="6" height="6"/></g>
<g transform="translate(660,60) scale(3.3333333333333)"><rect width="6" height="6"/></g>
<g transform="translate(740,60) scale(3.3333333333333)"><rect width="6" height="6"/></g>
<g transform="translate(200,80) scale(3.3333333333333)"><rect width="6" height="6"/></g>
<g transform="translate(220,80) scale(3.3333333333333)"><rect width="6" height="6"/></g>
<g transform="translate(260,80) scale(3.3333333333333)"><rect width="6" height="6"/></g>
<g transform="translate(280,80) scale(3.3333333333333)"><rect width="6" height="6"/></g>
<g transform="translate(320,80) scale(3.3333333333333)"><rect width="6" height="6"/></g>
<g transform="translate(360,80) scale(3.3333333333333)"><rect width="6" height="6"/></g>
<g transform="translate(400,80) scale(3.3333333333333)"><rect width="6" height="6"/></g>
<g transform="translate(500,80) scale(3.3333333333333)"><rect width="6" height="6"/></g>
<g transform="translate(540,80) scale(3.3333333333333)"><rect width="6" height="6"/></g>
<g transform="translate(580,80) scale(3.3333333333333)"><rect width="6" height="6"/></g>
<g transform="translate(620,80) scale(3.3333333333333)"><rect width="6" height="6"/></g>
<g transform="translate(740,80) scale(3.3333333333333)"><rect width="6" height="6"/></g>
<g transform="translate(220,100) scale(3.3333333333333)"><rect width="6" height="6"/></g>
<g transform="translate(240,100) scale(3.3333333333333)"><rect width="6" height="6"/></g>
<g transform="translate(300,100) scale(3.3333333333333)"><rect width="6" height="6"/></g>
<g transform="translate(360,100) scale(3.3333333333333)"><rect width="6" height="6"/></g>
<g transform="translate(400,100) scale(3.3333333333333)"><rect width="6" height="6"/></g>
<g transform="translate(440,100) scale(3.3333333333333)"><rect width="6" height="6"/></g>
<g transform="translate(480,100) scale(3.3333333333333)"><rect width="6" height="6"/></g>
<g transform="translate(500,100) scale(3.3333333333333)"><rect width="6" height="6"/></g>
<g transform="translate(560,100) scale(3.3333333333333)"><rect width="6" height="6"/></g>
<g transform="translate(580,100) scale(3.3333333333333)"><rect width="6" height="6"/></g>
<g transform="translate(620,100) scale(3.3333333333333)"><rect width="6" height="6"/></g>
<g transform="translate(640,100) scale(3.3333333333333)"><rect width="6" height="6"/></g>
<g transform="translate(660,100) scale(3.3333333333333)"><rect width="6" height="6"/></g>
<g transform="translate(680,100) scale(3.3333333333333)"><rect width="6" height="6"/></g>
<g transform="translate(740,100) scale(3.3333333333333)"><rect width="6" height="6"/></g>
<g transform="translate(760,100) scale(3.3333333333333)"><rect width="6" height="6"/></g>
<g transform="translate(240,120) scale(3.3333333333333)"><rect width="6" height="6"/></g>
<g transform="translate(260,120) scale(3.3333333333333)"><rect width="6" height="6"/></g>
<g transform="translate(280,120) scale(3.3333333333333)"><rect width="6" height="6"/></g>
<g transform="translate(300,120) scale(3.3333333333333)"><rect width="6" height="6"/></g>
<g transform="translate(320,120) scale(3.3333333333333)"><rect width="6" height="6"/></g>
<g transform="translate(420,120) scale(3.3333333333333)"><rect width="6" height="6"/></g>
<g transform="translate(440,120) scale(3.3333333333333)"><rect width="6" height="6"/></g>
<g transform="translate(460,120) scale(3.3333333333333)"><rect width="6" height="6"/></g>
<g transform="translate(480,120) scale(3.3333333333333)"><rect width="6" height="6"/></g>
<g transform="translate(500,120) scale(3.3333333333333)"><rect width="6" height="6"/></g>
<g transform="translate(520,120) scale(3.3333333333333)"><rect width="6" height="6"/></g>
<g transform="translate(540,120) scale(3.3333333333333)"><rect width="6" height="6"/></g>
<g transform="translate(600,120) scale(3.3333333333333)"><rect width="6" height="6"/></g>
<g transform="translate(640,120) scale(3.3333333333333)"><rect width="6" height="6"/></g>
<g transform="translate(680,120) scale(3.3333333333333)"><rect width="6" height="6"/></g>
<g transform="translate(700,120) scale(3.3333333333333)"><rect width="6" height="6"/></g>
<g transform="translate(720,120) scale(3.3333333333333)"><rect width="6" height="6"/></g>
<g transform="translate(740,120) scale(3.3333333333333)"><rect width="6" height="6"/></g>
<g transform="translate(760,120) scale(3.3333333333333)"><rect width="6" height="6"/></g>
<g transform="translate(200,140) scale(3.3333333333333)"><rect width="6" height="6"/></g>
<g transform="translate(360,140) scale(3.3333333333333)"><rect width="6" height="6"/></g>
<g transform="translate(400,140) scale(3.3333333333333)"><rect width="6" height="6"/></g>
<g transform="translate(440,140) scale(3.3333333333333)"><rect width="6" height="6"/></g>
<g transform="translate(520,140) scale(3.3333333333333)"><rect width="6" height="6"/></g>
<g transform="translate(560,140) scale(3.3333333333333)"><rect width="6" height="6"/></g>
<g transform="translate(660,140) scale(3.3333333333333)"><rect width="6" height="6"/></g>
<g transform="translate(680,140) scale(3.3333333333333)"><rect width="6" height="6"/></g>
<g transform="translate(700,140) scale(3.3333333333333)"><rect width="6" height="6"/></g>
<g transform="translate(200,160) scale(3.3333333333333)"><rect width="6" height="6"/></g>
<g transform="translate(240,160) scale(3.3333333333333)"><rect width="6" height="6"/></g>
<g transform="translate(280,160) scale(3.3333333333333)"><rect width="6" height="6"/></g>
<g transform="translate(320,160) scale(3.3333333333333)"><rect width="6" height="6"/></g>
<g transform="translate(360,160) scale(3.3333333333333)"><rect width="6" height="6"/></g>
<g transform="translate(400,160) scale(3.3333333333333)"><rect width="6" height="6"/></g>
<g transform="translate(440,160) scale(3.3333333333333)"><rect width="6" height="6"/></g>
<g transform="translate(480,160) scale(3.3333333333333)"><rect width="6" height="6"/></g>
<g transform="translate(520,160) scale(3.3333333333333)"><rect width="6" height="6"/></g>
<g transform="translate(560,160) scale(3.3333333333333)"><rect width="6" height="6"/></g>
<g transform="translate(600,160) scale(3.3333333333333)"><rect width="6" height="6"/></g>
<g transform="translate(640,160) scale(3.3333333333333)"><rect width="6" height="6"/></g>
<g transform="translate(680,160) scale(3.3333333333333)"><rect width="6" height="6"/></g>
<g transform="translate(720,160) scale(3.3333333333333)"><rect width="6" height="6"/></g>
<g transform="translate(760,160) scale(3.3333333333333)"><rect width="6" height="6"/></g>
<g transform="translate(200,180) scale(3.3333333333333)"><rect width="6" height="6"/></g>
<g transform="translate(220,180) scale(3.3333333333333)"><rect width="6" height="6"/></g>
<g transform="translate(240,180) scale(3.3333333333333)"><rect width="6" height="6"/></g>
<g transform="translate(260,180) scale(3.3333333333333)"><rect width="6" height="6"/></g>
<g transform="translate(300,180) scale(3.3333333333333)"><rect width="6" height="6"/></g>
<g transform="translate(380,180) scale(3.3333333333333)"><rect width="6" height="6"/></g>
<g transform="translate(400,180) scale(3.3333333333333)"><rect width="6" height="6"/></g>
<g transform="translate(420,180) scale(3.3333333333333)"><rect width="6" height="6"/></g>
<g transform="translate(440,180) scale(3.3333333333333)"><rect width="6" height="6"/></g>
<g transform="translate(520,180) scale(3.3333333333333)"><rect width="6" height="6"/></g>
<g transform="translate(540,180) scale(3.3333333333333)"><rect width="6" height="6"/></g>
<g transform="translate(560,180) scale(3.3333333333333)"><rect width="6" height="6"/></g>
<g transform="translate(620,180) scale(3.3333333333333)"><rect width="6" height="6"/></g>
<g transform="translate(640,180) scale(3.3333333333333)"><rect width="6" height="6"/></g>
<g transform="translate(660,180) scale(3.3333333333333)"><rect width="6" height="6"/></g>
<g transform="translate(720,180) scale(3.3333333333333)"><rect width="6" height="6"/></g>
<g transform="translate(80,200) scale(3.3333333333333)"><rect width="6" height="6"/></g>
<g transform="translate(100,200) scale(3.3333333333333)"><rect width="6" height="6"/></g>
<g transform="translate(120,200) scale(3.3333333333333)"><rect width="6" height="6"/></g>
<g transform="translate(160,200) scale(3.3333333333333)"><rect width="6" height="6"/></g>
<g transform="translate(200,200) scale(3.3333333333333)"><rect width="6" height="6"/></g>
<g transform="translate(220,200) scale(3.3333333333333)"><rect width="6" height="6"/></g>
<g transform="translate(240,200) scale(3.3333333333333)"><rect width="6" height="6"/></g>
<g transform="translate(280,200) scale(3.3333333333333)"><rect width="6" height="6"/></g>
<g transform="translate(320,200) scale(3.3333333333333)"><rect width="6" height="6"/></g>
<g transform="translate(340,200) scale(3.3333333333333)"><rect width="6" height="6"/></g>
<g transform="translate(440,200) scale(3.3333333333333)"><rect width="6" height="6"/></g>
<g transform="translate(460,200) scale(3.3333333333333)"><rect width="6" height="6"/></g>
<g transform="translate(480,200) scale(3.3333333333333)"><rect width="6" height="6"/></g>
<g transform="translate(500,200) scale(3.3333333333333)"><rect width="6" height="6"/></g>
<g transform="translate(520,200) scale(3.3333333333333)"><rect width="6" height="6"/></g>
<g transform="translate(540,200) scale(3.3333333333333)"><rect width="6" height="6"/></g>
<g transform="translate(640,200) scale(3.3333333333333)"><rect width="6" height="6"/></g>
<g transform="translate(660,200) scale(3.3333333333333)"><rect width="6" height="6"/></g>
<g transform="translate(720,200) scale(3.3333333333333)"><rect width="6" height="6"/></g>
<g transform="translate(740,200) scale(3.3333333333333)"><rect width="6" height="6"/></g>
<g transform="translate(760,200) scale(3.3333333333333)"><rect width="6" height="6"/></g>
<g transform="translate(780,200) scale(3.3333333333333)"><rect width="6" height="6"/></g>
<g transform="translate(800,200) scale(3.3333333333333)"><rect width="6" height="6"/></g>
<g transform="translate(820,200) scale(3.3333333333333)"><rect width="6" height="6"/></g>
<g transform="translate(880,200) scale(3.3333333333333)"><rect width="6" height="6"/></g>
<g transform="translate(900,200) scale(3.3333333333333)"><rect width="6" height="6"/></g>
<g transform="translate(920,200) scale(3.3333333333333)"><rect width="6" height="6"/></g>
<g transform="translate(40,220) scale(3.3333333333333)"><rect width="6" height="6"/></g>
<g transform="translate(100,220) scale(3.3333333333333)"><rect width="6" height="6"/></g>
<g transform="translate(200,220) scale(3.3333333333333)"><rect width="6" height="6"/></g>
<g transform="translate(260,220) scale(3.3333333333333)"><rect width="6" height="6"/></g>
<g transform="translate(300,220) scale(3.3333333333333)"><rect width="6" height="6"/></g>
<g transform="translate(320,220) scale(3.3333333333333)"><rect width="6" height="6"/></g>
<g transform="translate(360,220) scale(3.3333333333333)"><rect width="6" height="6"/></g>
<g transform="translate(380,220) scale(3.3333333333333)"><rect width="6" height="6"/></g>
<g transform="translate(440,220) scale(3.3333333333333)"><rect width="6" height="6"/></g>
<g transform="translate(460,220) scale(3.3333333333333)"><rect width="6" height="6"/></g>
<g transform="translate(500,220) scale(3.3333333333333)"><rect width="6" height="6"/></g>
<g transform="translate(560,220) scale(3.3333333333333)"><rect width="6" height="6"/></g>
<g transform="translate(600,220) scale(3.3333333333333)"><rect width="6" height="6"/></g>
<g transform="translate(640,220) scale(3.3333333333333)"><rect width="6" height="6"/></g>
<g transform="translate(660,220) scale(3.3333333333333)"><rect width="6" height="6"/></g>
<g transform="translate(680,220) scale(3.3333333333333)"><rect width="6" height="6"/></g>
<g transform="translate(700,220) scale(3.3333333333333)"><rect width="6" height="6"/></g>
<g transform="translate(760,220) scale(3.3333333333333)"><rect width="6" height="6"/></g>
<g transform="translate(820,220) scale(3.3333333333333)"><rect width="6" height="6"/></g>
<g transform="translate(900,220) scale(3.3333333333333)"><rect width="6" height="6"/></g>
<g transform="translate(40,240) scale(3.3333333333333)"><rect width="6" height="6"/></g>
<g transform="translate(120,240) scale(3.3333333333333)"><rect width="6" height="6"/></g>
<g transform="translate(140,240) scale(3.3333333333333)"><rect width="6" height="6"/></g>
<g transform="translate(160,240) scale(3.3333333333333)"><rect width="6" height="6"/></g>
<g transform="translate(180,240) scale(3.3333333333333)"><rect width="6" height="6"/></g>
<g transform="translate(200,240) scale(3.3333333333333)"><rect width="6" height="6"/></g>
<g transform="translate(220,240) scale(3.3333333333333)"><rect width="6" height="6"/></g>
<g transform="translate(240,240) scale(3.3333333333333)"><rect width="6" height="6"/></g>
<g transform="translate(260,240) scale(3.3333333333333)"><rect width="6" height="6"/></g>
<g transform="translate(320,240) scale(3.3333333333333)"><rect width="6" height="6"/></g>
<g transform="translate(360,240) scale(3.3333333333333)"><rect width="6" height="6"/></g>
<g transform="translate(380,240) scale(3.3333333333333)"><rect width="6" height="6"/></g>
<g transform="translate(420,240) scale(3.3333333333333)"><rect width="6" height="6"/></g>
<g transform="translate(440,240) scale(3.3333333333333)"><rect width="6" height="6"/></g>
<g transform="translate(480,240) scale(3.3333333333333)"><rect width="6" height="6"/></g>
<g transform="translate(500,240) scale(3.3333333333333)"><rect width="6" height="6"/></g>
<g transform="translate(520,240) scale(3.3333333333333)"><rect width="6" height="6"/></g>
<g transform="translate(540,240) scale(3.3333333333333)"><rect width="6" height="6"/></g>
<g transform="translate(560,240) scale(3.3333333333333)"><rect width="6" height="6"/></g>
<g transform="translate(580,240) scale(3.3333333333333)"><rect width="6" height="6"/></g>
<g transform="translate(600,240) scale(3.3333333333333)"><rect width="6" height="6"/></g>
<g transform="translate(620,240) scale(3.3333333333333)"><rect width="6" height="6"/></g>
<g transform="translate(640,240) scale(3.3333333333333)"><rect width="6" height="6"/></g>
<g transform="translate(680,240) scale(3.3333333333333)"><rect width="6" height="6"/></g>
<g transform="translate(700,240) scale(3.3333333333333)"><rect width="6" height="6"/></g>
<g transform="translate(720,240) scale(3.3333333333333)"><rect width="6" height="6"/></g>
<g transform="translate(840,240) scale(3.3333333333333)"><rect width="6" height="6"/></g>
<g transform="translate(880,240) scale(3.3333333333333)"><rect width="6" height="6"/></g>
<g transform="translate(900,240) scale(3.3333333333333)"><rect width="6" height="6"/></g>
<g transform="translate(80,260) scale(3.3333333333333)"><rect width="6" height="6"/></g>
<g transform="translate(140,260) scale(3.3333333333333)"><rect width="6" height="6"/></g>
<g transform="translate(240,260) scale(3.3333333333333)"><rect width="6" height="6"/></g>
<g transform="translate(280,260) scale(3.3333333333333)"><rect width="6" height="6"/></g>
<g transform="translate(340,260) scale(3.3333333333333)"><rect width="6" height="6"/></g>
<g transform="translate(380,260) scale(3.3333333333333)"><rect width="6" height="6"/></g>
<g transform="translate(440,260) scale(3.3333333333333)"><rect width="6" height="6"/></g>
<g transform="translate(480,260) scale(3.3333333333333)"><rect width="6" height="6"/></g>
<g transform="translate(540,260) scale(3.3333333333333)"><rect width="6" height="6"/></g>
<g transform="translate(600,260) scale(3.3333333333333)"><rect width="6" height="6"/></g>
<g transform="translate(720,260) scale(3.3333333333333)"><rect width="6" height="6"/></g>
<g transform="translate(860,260) scale(3.3333333333333)"><rect width="6" height="6"/></g>
<g transform="translate(880,260) scale(3.3333333333333)"><rect width="6" height="6"/></g>
<g transform="translate(920,260) scale(3.3333333333333)"><rect width="6" height="6"/></g>
<g transform="translate(60,280) scale(3.3333333333333)"><rect width="6" height="6"/></g>
<g transform="translate(80,280) scale(3.3333333333333)"><rect width="6" height="6"/></g>
<g transform="translate(120,280) scale(3.3333333333333)"><rect width="6" height="6"/></g>
<g transform="translate(160,280) scale(3.3333333333333)"><rect width="6" height="6"/></g>
<g transform="translate(200,280) scale(3.3333333333333)"><rect width="6" height="6"/></g>
<g transform="translate(220,280) scale(3.3333333333333)"><rect width="6" height="6"/></g>
<g transform="translate(240,280) scale(3.3333333333333)"><rect width="6" height="6"/></g>
<g transform="translate(260,280) scale(3.3333333333333)"><rect width="6" height="6"/></g>
<g transform="translate(280,280) scale(3.3333333333333)"><rect width="6" height="6"/></g>
<g transform="translate(440,280) scale(3.3333333333333)"><rect width="6" height="6"/></g>
<g transform="translate(500,280) scale(3.3333333333333)"><rect width="6" height="6"/></g>
<g transform="translate(520,280) scale(3.3333333333333)"><rect width="6" height="6"/></g>
<g transform="translate(580,280) scale(3.3333333333333)"><rect width="6" height="6"/></g>
<g transform="translate(600,280) scale(3.3333333333333)"><rect width="6" height="6"/></g>
<g transform="translate(640,280) scale(3.3333333333333)"><rect width="6" height="6"/></g>
<g transform="translate(700,280) scale(3.3333333333333)"><rect width="6" height="6"/></g>
<g transform="translate(720,280) scale(3.3333333333333)"><rect width="6" height="6"/></g>
<g transform="translate(740,280) scale(3.3333333333333)"><rect width="6" height="6"/></g>
<g transform="translate(860,280) scale(3.3333333333333)"><rect width="6" height="6"/></g>
<g transform="translate(880,280) scale(3.3333333333333)"><rect width="6" height="6"/></g>
<g transform="translate(920,280) scale(3.3333333333333)"><rect width="6" height="6"/></g>
<g transform="translate(120,300) scale(3.3333333333333)"><rect width="6" height="6"/></g>
<g transform="translate(180,300) scale(3.3333333333333)"><rect width="6" height="6"/></g>
<g transform="translate(200,300) scale(3.3333333333333)"><rect width="6" height="6"/></g>
<g transform="translate(240,300) scale(3.3333333333333)"><rect width="6" height="6"/></g>
<g transform="translate(300,300) scale(3.3333333333333)"><rect width="6" height="6"/></g>
<g transform="translate(360,300) scale(3.3333333333333)"><rect width="6" height="6"/></g>
<g transform="translate(400,300) scale(3.3333333333333)"><rect width="6" height="6"/></g>
<g transform="translate(420,300) scale(3.3333333333333)"><rect width="6" height="6"/></g>
<g transform="translate(440,300) scale(3.3333333333333)"><rect width="6" height="6"/></g>
<g transform="translate(480,300) scale(3.3333333333333)"><rect width="6" height="6"/></g>
<g transform="translate(500,300) scale(3.3333333333333)"><rect width="6" height="6"/></g>
<g transform="translate(520,300) scale(3.3333333333333)"><rect width="6" height="6"/></g>
<g transform="translate(540,300) scale(3.3333333333333)"><rect width="6" height="6"/></g>
<g transform="translate(580,300) scale(3.3333333333333)"><rect width="6" height="6"/></g>
<g transform="translate(660,300) scale(3.3333333333333)"><rect width="6" height="6"/></g>
<g transform="translate(700,300) scale(3.3333333333333)"><rect width="6" height="6"/></g>
<g transform="translate(780,300) scale(3.3333333333333)"><rect width="6" height="6"/></g>
<g transform="translate(840,300) scale(3.3333333333333)"><rect width="6" height="6"/></g>
<g transform="translate(920,300) scale(3.3333333333333)"><rect width="6" height="6"/></g>
<g transform="translate(40,320) scale(3.3333333333333)"><rect width="6" height="6"/></g>
<g transform="translate(80,320) scale(3.3333333333333)"><rect width="6" height="6"/></g>
<g transform="translate(100,320) scale(3.3333333333333)"><rect width="6" height="6"/></g>
<g transform="translate(120,320) scale(3.3333333333333)"><rect width="6" height="6"/></g>
<g transform="translate(160,320) scale(3.3333333333333)"><rect width="6" height="6"/></g>
<g transform="translate(260,320) scale(3.3333333333333)"><rect width="6" height="6"/></g>
<g transform="translate(280,320) scale(3.3333333333333)"><rect width="6" height="6"/></g>
<g transform="translate(300,320) scale(3.3333333333333)"><rect width="6" height="6"/></g>
<g transform="translate(340,320) scale(3.3333333333333)"><rect width="6" height="6"/></g>
<g transform="translate(380,320) scale(3.3333333333333)"><rect width="6" height="6"/></g>
<g transform="translate(400,320) scale(3.3333333333333)"><rect width="6" height="6"/></g>
<g transform="translate(460,320) scale(3.3333333333333)"><rect width="6" height="6"/></g>
<g transform="translate(480,320) scale(3.3333333333333)"><rect width="6" height="6"/></g>
<g transform="translate(520,320) scale(3.3333333333333)"><rect width="6" height="6"/></g>
<g transform="translate(580,320) scale(3.3333333333333)"><rect width="6" height="6"/></g>
<g transform="translate(640,320) scale(3.3333333333333)"><rect width="6" height="6"/></g>
<g transform="translate(660,320) scale(3.3333333333333)"><rect width="6" height="6"/></g>
<g transform="translate(680,320) scale(3.3333333333333)"><rect width="6" height="6"/></g>
<g transform="translate(700,320) scale(3.3333333333333)"><rect width="6" height="6"/></g>
<g transform="translate(720,320) scale(3.3333333333333)"><rect width="6" height="6"/></g>
<g transform="translate(780,320) scale(3.3333333333333)"><rect width="6" height="6"/></g>
<g transform="translate(800,320) scale(3.3333333333333)"><rect width="6" height="6"/></g>
<g transform="translate(820,320) scale(3.3333333333333)"><rect width="6" height="6"/></g>
<g transform="translate(840,320) scale(3.3333333333333)"><rect width="6" height="6"/></g>
<g transform="translate(880,320) scale(3.3333333333333)"><rect width="6" height="6"/></g>
<g transform="translate(900,320) scale(3.3333333333333)"><rect width="6" height="6"/></g>
<g transform="translate(60,340) scale(3.3333333333333)"><rect width="6" height="6"/></g>
<g transform="translate(80,340) scale(3.3333333333333)"><rect width="6" height="6"/></g>
<g transform="translate(100,340) scale(3.3333333333333)"><rect width="6" height="6"/></g>
<g transform="translate(120,340) scale(3.3333333333333)"><rect width="6" height="6"/></g>
<g transform="translate(140,340) scale(3.3333333333333)"><rect width="6" height="6"/></g>
<g transform="translate(200,340) scale(3.3333333333333)"><rect width="6" height="6"/></g>
<g transform="translate(220,340) scale(3.3333333333333)"><rect width="6" height="6"/></g>
<g transform="translate(260,340) scale(3.3333333333333)"><rect width="6" height="6"/></g>
<g transform="translate(280,340) scale(3.3333333333333)"><rect width="6" height="6"/></g>
<g transform="translate(300,340) scale(3.3333333333333)"><rect width="6" height="6"/></g>
<g transform="translate(380,340) scale(3.3333333333333)"><rect width="6" height="6"/></g>
<g transform="translate(440,340) scale(3.3333333333333)"><rect width="6" height="6"/></g>
<g transform="translate(480,340) scale(3.3333333333333)"><rect width="6" height="6"/></g>
<g transform="translate(520,340) scale(3.3333333333333)"><rect width="6" height="6"/></g>
<g transform="translate(540,340) scale(3.3333333333333)"><rect width="6" height="6"/></g>
<g transform="translate(640,340) scale(3.3333333333333)"><rect width="6" height="6"/></g>
<g transform="translate(680,340) scale(3.3333333333333)"><rect width="6" height="6"/></g>
<g transform="translate(700,340) scale(3.3333333333333)"><rect width="6" height="6"/></g>
<g transform="translate(720,340) scale(3.3333333333333)"><rect width="6" height="6"/></g>
<g transform="translate(740,340) scale(3.3333333333333)"><rect width="6" height="6"/></g>
<g transform="translate(760,340) scale(3.3333333333333)"><rect width="6" height="6"/></g>
<g transform="translate(780,340) scale(3.3333333333333)"><rect width="6" height="6"/></g>
<g transform="translate(820,340) scale(3.3333333333333)"><rect width="6" height="6"/></g>
<g transform="translate(840,340) scale(3.3333333333333)"><rect width="6" height="6"/></g>
<g transform="translate(860,340) scale(3.3333333333333)"><rect width="6" height="6"/></g>
<g transform="translate(880,340) scale(3.3333333333333)"><rect width="6" height="6"/></g>
<g transform="translate(900,340) scale(3.3333333333333)"><rect width="6" height="6"/></g>
<g transform="translate(60,360) scale(3.3333333333333)"><rect width="6" height="6"/></g>
<g transform="translate(80,360) scale(3.3333333333333)"><rect width="6" height="6"/></g>
<g transform="translate(100,360) scale(3.3333333333333)"><rect width="6" height="6"/></g>
<g transform="translate(120,360) scale(3.3333333333333)"><rect width="6" height="6"/></g>
<g transform="translate(140,360) scale(3.3333333333333)"><rect width="6" height="6"/></g>
<g transform="translate(160,360) scale(3.3333333333333)"><rect width="6" height="6"/></g>
<g transform="translate(180,360) scale(3.3333333333333)"><rect width="6" height="6"/></g>
<g transform="translate(220,360) scale(3.3333333333333)"><rect width="6" height="6"/></g>
<g transform="translate(240,360) scale(3.3333333333333)"><rect width="6" height="6"/></g>
<g transform="translate(280,360) scale(3.3333333333333)"><rect width="6" height="6"/></g>
<g transform="translate(360,360) scale(3.3333333333333)"><rect width="6" height="6"/></g>
<g transform="translate(400,360) scale(3.3333333333333)"><rect width="6" height="6"/></g>
<g transform="translate(420,360) scale(3.3333333333333)"><rect width="6" height="6"/></g>
<g transform="translate(480,360) scale(3.3333333333333)"><rect width="6" height="6"/></g>
<g transform="translate(540,360) scale(3.3333333333333)"><rect width="6" height="6"/></g>
<g transform="translate(580,360) scale(3.3333333333333)"><rect width="6" height="6"/></g>
<g transform="translate(620,360) scale(3.3333333333333)"><rect width="6" height="6"/></g>
<g transform="translate(640,360) scale(3.3333333333333)"><rect width="6" height="6"/></g>
<g transform="translate(660,360) scale(3.3333333333333)"><rect width="6" height="6"/></g>
<g transform="translate(700,360) scale(3.3333333333333)"><rect width="6" height="6"/></g>
<g transform="translate(720,360) scale(3.3333333333333)"><rect width="6" height="6"/></g>
<g transform="translate(780,360) scale(3.3333333333333)"><rect width="6" height="6"/></g>
<g transform="translate(860,360) scale(3.3333333333333)"><rect width="6" height="6"/></g>
<g transform="translate(920,360) scale(3.3333333333333)"><rect width="6" height="6"/></g>
<g transform="translate(60,380) scale(3.3333333333333)"><rect width="6" height="6"/></g>
<g transform="translate(80,380) scale(3.3333333333333)"><rect width="6" height="6"/></g>
<g transform="translate(100,380) scale(3.3333333333333)"><rect width="6" height="6"/></g>
<g transform="translate(140,380) scale(3.3333333333333)"><rect width="6" height="6"/></g>
<g transform="translate(180,380) scale(3.3333333333333)"><rect width="6" height="6"/></g>
<g transform="translate(200,380) scale(3.3333333333333)"><rect width="6" height="6"/></g>
<g transform="translate(220,380) scale(3.3333333333333)"><rect width="6" height="6"/></g>
<g transform="translate(280,380) scale(3.3333333333333)"><rect width="6" height="6"/></g>
<g transform="translate(320,380) scale(3.3333333333333)"><rect width="6" height="6"/></g>
<g transform="translate(380,380) scale(3.3333333333333)"><rect width="6" height="6"/></g>
<g transform="translate(440,380) scale(3.3333333333333)"><rect width="6" height="6"/></g>
<g transform="translate(480,380) scale(3.3333333333333)"><rect width="6" height="6"/></g>
<g transform="translate(500,380) scale(3.3333333333333)"><rect width="6" height="6"/></g>
<g transform="translate(540,380) scale(3.3333333333333)"><rect width="6" height="6"/></g>
<g transform="translate(560,380) scale(3.3333333333333)"><rect width="6" height="6"/></g>
<g transform="translate(580,380) scale(3.3333333333333)"><rect width="6" height="6"/></g>
<g transform="translate(640,380) scale(3.3333333333333)"><rect width="6" height="6"/></g>
<g transform="translate(660,380) scale(3.3333333333333)"><rect width="6" height="6"/></g>
<g transform="translate(680,380) scale(3.3333333333333)"><rect width="6" height="6"/></g>
<g transform="translate(700,380) scale(3.3333333333333)"><rect width="6" height="6"/></g>
<g transform="translate(740,380) scale(3.3333333333333)"><rect width="6" height="6"/></g>
<g transform="translate(760,380) scale(3.3333333333333)"><rect width="6" height="6"/></g>
<g transform="translate(780,380) scale(3.3333333333333)"><rect width="6" height="6"/></g>
<g transform="translate(920,380) scale(3.3333333333333)"><rect width="6" height="6"/></g>
<g transform="translate(120,400) scale(3.3333333333333)"><rect width="6" height="6"/></g>
<g transform="translate(160,400) scale(3.3333333333333)"><rect width="6" height="6"/></g>
<g transform="translate(180,400) scale(3.3333333333333)"><rect width="6" height="6"/></g>
<g transform="translate(220,400) scale(3.3333333333333)"><rect width="6" height="6"/></g>
<g transform="translate(240,400) scale(3.3333333333333)"><rect width="6" height="6"/></g>
<g transform="translate(260,400) scale(3.3333333333333)"><rect width="6" height="6"/></g>
<g transform="translate(280,400) scale(3.3333333333333)"><rect width="6" height="6"/></g>
<g transform="translate(320,400) scale(3.3333333333333)"><rect width="6" height="6"/></g>
<g transform="translate(340,400) scale(3.3333333333333)"><rect width="6" height="6"/></g>
<g transform="translate(380,400) scale(3.3333333333333)"><rect width="6" height="6"/></g>
<g transform="translate(420,400) scale(3.3333333333333)"><rect width="6" height="6"/></g>
<g transform="translate(460,400) scale(3.3333333333333)"><rect width="6" height="6"/></g>
<g transform="translate(480,400) scale(3.3333333333333)"><rect width="6" height="6"/></g>
<g transform="translate(540,400) scale(3.3333333333333)"><rect width="6" height="6"/></g>
<g transform="translate(580,400) scale(3.3333333333333)"><rect width="6" height="6"/></g>
<g transform="translate(620,400) scale(3.3333333333333)"><rect width="6" height="6"/></g>
<g transform="translate(640,400) scale(3.3333333333333)"><rect width="6" height="6"/></g>
<g transform="translate(660,400) scale(3.3333333333333)"><rect width="6" height="6"/></g>
<g transform="translate(680,400) scale(3.3333333333333)"><rect width="6" height="6"/></g>
<g transform="translate(740,400) scale(3.3333333333333)"><rect width="6" height="6"/></g>
<g transform="translate(760,400) scale(3.3333333333333)"><rect width="6" height="6"/></g>
<g transform="translate(800,400) scale(3.3333333333333)"><rect width="6" height="6"/></g>
<g transform="translate(820,400) scale(3.3333333333333)"><rect width="6" height="6"/></g>
<g transform="translate(860,400) scale(3.3333333333333)"><rect width="6" height="6"/></g>
<g transform="translate(880,400) scale(3.3333333333333)"><rect width="6" height="6"/></g>
<g transform="translate(900,400) scale(3.3333333333333)"><rect width="6" height="6"/></g>
<g transform="translate(100,420) scale(3.3333333333333)"><rect width="6" height="6"/></g>
<g transform="translate(360,420) scale(3.3333333333333)"><rect width="6" height="6"/></g>
<g transform="translate(380,420) scale(3.3333333333333)"><rect width="6" height="6"/></g>
<g transform="translate(400,420) scale(3.3333333333333)"><rect width="6" height="6"/></g>
<g transform="translate(420,420) scale(3.3333333333333)"><rect width="6" height="6"/></g>
<g transform="translate(480,420) scale(3.3333333333333)"><rect width="6" height="6"/></g>
<g transform="translate(500,420) scale(3.3333333333333)"><rect width="6" height="6"/></g>
<g transform="translate(580,420) scale(3.3333333333333)"><rect width="6" height="6"/></g>
<g transform="translate(620,420) scale(3.3333333333333)"><rect width="6" height="6"/></g>
<g transform="translate(660,420) scale(3.3333333333333)"><rect width="6" height="6"/></g>
<g transform="translate(680,420) scale(3.3333333333333)"><rect width="6" height="6"/></g>
<g transform="translate(700,420) scale(3.3333333333333)"><rect width="6" height="6"/></g>
<g transform="translate(720,420) scale(3.3333333333333)"><rect width="6" height="6"/></g>
<g transform="translate(780,420) scale(3.3333333333333)"><rect width="6" height="6"/></g>
<g transform="translate(800,420) scale(3.3333333333333)"><rect width="6" height="6"/></g>
<g transform="translate(820,420) scale(3.3333333333333)"><rect width="6" height="6"/></g>
<g transform="translate(840,420) scale(3.3333333333333)"><rect width="6" height="6"/></g>
<g transform="translate(860,420) scale(3.3333333333333)"><rect width="6" height="6"/></g>
<g transform="translate(880,420) scale(3.3333333333333)"><rect width="6" height="6"/></g>
<g transform="translate(60,440) scale(3.3333333333333)"><rect width="6" height="6"/></g>
<g transform="translate(100,440) scale(3.3333333333333)"><rect width="6" height="6"/></g>
<g transform="translate(120,440) scale(3.3333333333333)"><rect width="6" height="6"/></g>
<g transform="translate(140,440) scale(3.3333333333333)"><rect width="6" height="6"/></g>
<g transform="translate(160,440) scale(3.3333333333333)"><rect width="6" height="6"/></g>
<g transform="translate(180,440) scale(3.3333333333333)"><rect width="6" height="6"/></g>
<g transform="translate(200,440) scale(3.3333333333333)"><rect width="6" height="6"/></g>
<g transform="translate(220,440) scale(3.3333333333333)"><rect width="6" height="6"/></g>
<g transform="translate(240,440) scale(3.3333333333333)"><rect width="6" height="6"/></g>
<g transform="translate(300,440) scale(3.3333333333333)"><rect width="6" height="6"/></g>
<g transform="translate(320,440) scale(3.3333333333333)"><rect width="6" height="6"/></g>
<g transform="translate(340,440) scale(3.3333333333333)"><rect width="6" height="6"/></g>
<g transform="translate(380,440) scale(3.3333333333333)"><rect width="6" height="6"/></g>
<g transform="translate(440,440) scale(3.3333333333333)"><rect width="6" height="6"/></g>
<g transform="translate(460,440) scale(3.3333333333333)"><rect width="6" height="6"/></g>
<g transform="translate(480,440) scale(3.3333333333333)"><rect width="6" height="6"/></g>
<g transform="translate(500,440) scale(3.3333333333333)"><rect width="6" height="6"/></g>
<g transform="translate(520,440) scale(3.3333333333333)"><rect width="6" height="6"/></g>
<g transform="translate(600,440) scale(3.3333333333333)"><rect width="6" height="6"/></g>
<g transform="translate(660,440) scale(3.3333333333333)"><rect width="6" height="6"/></g>
<g transform="translate(700,440) scale(3.3333333333333)"><rect width="6" height="6"/></g>
<g transform="translate(760,440) scale(3.3333333333333)"><rect width="6" height="6"/></g>
<g transform="translate(780,440) scale(3.3333333333333)"><rect width="6" height="6"/></g>
<g transform="translate(800,440) scale(3.3333333333333)"><rect width="6" height="6"/></g>
<g transform="translate(820,440) scale(3.3333333333333)"><rect width="6" height="6"/></g>
<g transform="translate(840,440) scale(3.3333333333333)"><rect width="6" height="6"/></g>
<g transform="translate(900,440) scale(3.3333333333333)"><rect width="6" height="6"/></g>
<g transform="translate(920,440) scale(3.3333333333333)"><rect width="6" height="6"/></g>
<g transform="translate(40,460) scale(3.3333333333333)"><rect width="6" height="6"/></g>
<g transform="translate(60,460) scale(3.3333333333333)"><rect width="6" height="6"/></g>
<g transform="translate(80,460) scale(3.3333333333333)"><rect width="6" height="6"/></g>
<g transform="translate(100,460) scale(3.3333333333333)"><rect width="6" height="6"/></g>
<g transform="translate(120,460) scale(3.3333333333333)"><rect width="6" height="6"/></g>
<g transform="translate(200,460) scale(3.3333333333333)"><rect width="6" height="6"/></g>
<g transform="translate(240,460) scale(3.3333333333333)"><rect width="6" height="6"/></g>
<g transform="translate(260,460) scale(3.3333333333333)"><rect width="6" height="6"/></g>
<g transform="translate(280,460) scale(3.3333333333333)"><rect width="6" height="6"/></g>
<g transform="translate(300,460) scale(3.3333333333333)"><rect width="6" height="6"/></g>
<g transform="translate(340,460) scale(3.3333333333333)"><rect width="6" height="6"/></g>
<g transform="translate(420,460) scale(3.3333333333333)"><rect width="6" height="6"/></g>
<g transform="translate(440,460) scale(3.3333333333333)"><rect width="6" height="6"/></g>
<g transform="translate(520,460) scale(3.3333333333333)"><rect width="6" height="6"/></g>
<g transform="translate(560,460) scale(3.3333333333333)"><rect width="6" height="6"/></g>
<g transform="translate(620,460) scale(3.3333333333333)"><rect width="6" height="6"/></g>
<g transform="translate(660,460) scale(3.3333333333333)"><rect width="6" height="6"/></g>
<g transform="translate(680,460) scale(3.3333333333333)"><rect width="6" height="6"/></g>
<g transform="translate(740,460) scale(3.3333333333333)"><rect width="6" height="6"/></g>
<g transform="translate(760,460) scale(3.3333333333333)"><rect width="6" height="6"/></g>
<g transform="translate(840,460) scale(3.3333333333333)"><rect width="6" height="6"/></g>
<g transform="translate(860,460) scale(3.3333333333333)"><rect width="6" height="6"/></g>
<g transform="translate(920,460) scale(3.3333333333333)"><rect width="6" height="6"/></g>
<g transform="translate(60,480) scale(3.3333333333333)"><rect width="6" height="6"/></g>
<g transform="translate(80,480) scale(3.3333333333333)"><rect width="6" height="6"/></g>
<g transform="translate(120,480) scale(3.3333333333333)"><rect width="6" height="6"/></g>
<g transform="translate(160,480) scale(3.3333333333333)"><rect width="6" height="6"/></g>
<g transform="translate(200,480) scale(3.3333333333333)"><rect width="6" height="6"/></g>
<g transform="translate(220,480) scale(3.3333333333333)"><rect width="6" height="6"/></g>
<g transform="translate(280,480) scale(3.3333333333333)"><rect width="6" height="6"/></g>
<g transform="translate(320,480) scale(3.3333333333333)"><rect width="6" height="6"/></g>
<g transform="translate(340,480) scale(3.3333333333333)"><rect width="6" height="6"/></g>
<g transform="translate(360,480) scale(3.3333333333333)"><rect width="6" height="6"/></g>
<g transform="translate(380,480) scale(3.3333333333333)"><rect width="6" height="6"/></g>
<g transform="translate(440,480) scale(3.3333333333333)"><rect width="6" height="6"/></g>
<g transform="translate(480,480) scale(3.3333333333333)"><rect width="6" height="6"/></g>
<g transform="translate(520,480) scale(3.3333333333333)"><rect width="6" height="6"/></g>
<g transform="translate(560,480) scale(3.3333333333333)"><rect width="6" height="6"/></g>
<g transform="translate(580,480) scale(3.3333333333333)"><rect width="6" height="6"/></g>
<g transform="translate(600,480) scale(3.3333333333333)"><rect width="6" height="6"/></g>
<g transform="translate(640,480) scale(3.3333333333333)"><rect width="6" height="6"/></g>
<g transform="translate(660,480) scale(3.3333333333333)"><rect width="6" height="6"/></g>
<g transform="translate(760,480) scale(3.3333333333333)"><rect width="6" height="6"/></g>
<g transform="translate(800,480) scale(3.3333333333333)"><rect width="6" height="6"/></g>
<g transform="translate(840,480) scale(3.3333333333333)"><rect width="6" height="6"/></g>
<g transform="translate(900,480) scale(3.3333333333333)"><rect width="6" height="6"/></g>
<g transform="translate(40,500) scale(3.3333333333333)"><rect width="6" height="6"/></g>
<g transform="translate(60,500) scale(3.3333333333333)"><rect width="6" height="6"/></g>
<g transform="translate(80,500) scale(3.3333333333333)"><rect width="6" height="6"/></g>
<g transform="translate(120,500) scale(3.3333333333333)"><rect width="6" height="6"/></g>
<g transform="translate(200,500) scale(3.3333333333333)"><rect width="6" height="6"/></g>
<g transform="translate(220,500) scale(3.3333333333333)"><rect width="6" height="6"/></g>
<g transform="translate(280,500) scale(3.3333333333333)"><rect width="6" height="6"/></g>
<g transform="translate(320,500) scale(3.3333333333333)"><rect width="6" height="6"/></g>
<g transform="translate(340,500) scale(3.3333333333333)"><rect width="6" height="6"/></g>
<g transform="translate(380,500) scale(3.3333333333333)"><rect width="6" height="6"/></g>
<g transform="translate(420,500) scale(3.3333333333333)"><rect width="6" height="6"/></g>
<g transform="translate(440,500) scale(3.3333333333333)"><rect width="6" height="6"/></g>
<g transform="translate(520,500) scale(3.3333333333333)"><rect width="6" height="6"/></g>
<g transform="translate(560,500) scale(3.3333333333333)"><rect width="6" height="6"/></g>
<g transform="translate(660,500) scale(3.3333333333333)"><rect width="6" height="6"/></g>
<g transform="translate(700,500) scale(3.3333333333333)"><rect width="6" height="6"/></g>
<g transform="translate(760,500) scale(3.3333333333333)"><rect width="6" height="6"/></g>
<g transform="translate(840,500) scale(3.3333333333333)"><rect width="6" height="6"/></g>
<g transform="translate(880,500) scale(3.3333333333333)"><rect width="6" height="6"/></g>
<g transform="translate(920,500) scale(3.3333333333333)"><rect width="6" height="6"/></g>
<g transform="translate(40,520) scale(3.3333333333333)"><rect width="6" height="6"/></g>
<g transform="translate(60,520) scale(3.3333333333333)"><rect width="6" height="6"/></g>
<g transform="translate(100,520) scale(3.3333333333333)"><rect width="6" height="6"/></g>
<g transform="translate(120,520) scale(3.3333333333333)"><rect width="6" height="6"/></g>
<g transform="translate(140,520) scale(3.3333333333333)"><rect width="6" height="6"/></g>
<g transform="translate(160,520) scale(3.3333333333333)"><rect width="6" height="6"/></g>
<g transform="translate(180,520) scale(3.3333333333333)"><rect width="6" height="6"/></g>
<g transform="translate(200,520) scale(3.3333333333333)"><rect width="6" height="6"/></g>
<g transform="translate(240,520) scale(3.3333333333333)"><rect width="6" height="6"/></g>
<g transform="translate(280,520) scale(3.3333333333333)"><rect width="6" height="6"/></g>
<g transform="translate(300,520) scale(3.3333333333333)"><rect width="6" height="6"/></g>
<g transform="translate(320,520) scale(3.3333333333333)"><rect width="6" height="6"/></g>
<g transform="translate(340,520) scale(3.3333333333333)"><rect width="6" height="6"/></g>
<g transform="translate(400,520) scale(3.3333333333333)"><rect width="6" height="6"/></g>
<g transform="translate(420,520) scale(3.3333333333333)"><rect width="6" height="6"/></g>
<g transform="translate(440,520) scale(3.3333333333333)"><rect width="6" height="6"/></g>
<g transform="translate(460,520) scale(3.3333333333333)"><rect width="6" height="6"/></g>
<g transform="translate(480,520) scale(3.3333333333333)"><rect width="6" height="6"/></g>
<g transform="translate(500,520) scale(3.3333333333333)"><rect width="6" height="6"/></g>
<g transform="translate(520,520) scale(3.3333333333333)"><rect width="6" height="6"/></g>
<g transform="translate(540,520) scale(3.3333333333333)"><rect width="6" height="6"/></g>
<g transform="translate(580,520) scale(3.3333333333333)"><rect width="6" height="6"/></g>
<g transform="translate(600,520) scale(3.3333333333333)"><rect width="6" height="6"/></g>
<g transform="translate(620,520) scale(3.3333333333333)"><rect width="6" height="6"/></g>
<g transform="translate(640,520) scale(3.3333333333333)"><rect width="6" height="6"/></g>
<g transform="translate(700,520) scale(3.3333333333333)"><rect width="6" height="6"/></g>
<g transform="translate(760,520) scale(3.3333333333333)"><rect width="6" height="6"/></g>
<g transform="translate(780,520) scale(3.3333333333333)"><rect width="6" height="6"/></g>
<g transform="translate(800,520) scale(3.3333333333333)"><rect width="6" height="6"/></g>
<g transform="translate(820,520) scale(3.3333333333333)"><rect width="6" height="6"/></g>
<g transform="translate(840,520) scale(3.3333333333333)"><rect width="6" height="6"/></g>
<g transform="translate(900,520) scale(3.3333333333333)"><rect width="6" height="6"/></g>
<g transform="translate(920,520) scale(3.3333333333333)"><rect width="6" height="6"/></g>
<g transform="translate(100,540) scale(3.3333333333333)"><rect width="6" height="6"/></g>
<g transform="translate(140,540) scale(3.3333333333333)"><rect width="6" height="6"/></g>
<g transform="translate(180,540) scale(3.3333333333333)"><rect width="6" height="6"/></g>
<g transform="translate(200,540) scale(3.3333333333333)"><rect width="6" height="6"/></g>
<g transform="translate(320,540) scale(3.3333333333333)"><rect width="6" height="6"/></g>
<g transform="translate(360,540) scale(3.3333333333333)"><rect width="6" height="6"/></g>
<g transform="translate(400,540) scale(3.3333333333333)"><rect width="6" height="6"/></g>
<g transform="translate(440,540) scale(3.3333333333333)"><rect width="6" height="6"/></g>
<g transform="translate(500,540) scale(3.3333333333333)"><rect width="6" height="6"/></g>
<g transform="translate(540,540) scale(3.3333333333333)"><rect width="6" height="6"/></g>
<g transform="translate(560,540) scale(3.3333333333333)"><rect width="6" height="6"/></g>
<g transform="translate(600,540) scale(3.3333333333333)"><rect width="6" height="6"/></g>
<g transform="translate(660,540) scale(3.3333333333333)"><rect width="6" height="6"/></g>
<g transform="translate(700,540) scale(3.3333333333333)"><rect width="6" height="6"/></g>
<g transform="translate(740,540) scale(3.3333333333333)"><rect width="6" height="6"/></g>
<g transform="translate(760,540) scale(3.3333333333333)"><rect width="6" height="6"/></g>
<g transform="translate(900,540) scale(3.3333333333333)"><rect width="6" height="6"/></g>
<g transform="translate(60,560) scale(3.3333333333333)"><rect width="6" height="6"/></g>
<g transform="translate(80,560) scale(3.3333333333333)"><rect width="6" height="6"/></g>
<g transform="translate(120,560) scale(3.3333333333333)"><rect width="6" height="6"/></g>
<g transform="translate(140,560) scale(3.3333333333333)"><rect width="6" height="6"/></g>
<g transform="translate(160,560) scale(3.3333333333333)"><rect width="6" height="6"/></g>
<g transform="translate(180,560) scale(3.3333333333333)"><rect width="6" height="6"/></g>
<g transform="translate(240,560) scale(3.3333333333333)"><rect width="6" height="6"/></g>
<g transform="translate(280,560) scale(3.3333333333333)"><rect width="6" height="6"/></g>
<g transform="translate(300,560) scale(3.3333333333333)"><rect width="6" height="6"/></g>
<g transform="translate(360,560) scale(3.3333333333333)"><rect width="6" height="6"/></g>
<g transform="translate(380,560) scale(3.3333333333333)"><rect width="6" height="6"/></g>
<g transform="translate(440,560) scale(3.3333333333333)"><rect width="6" height="6"/></g>
<g transform="translate(500,560) scale(3.3333333333333)"><rect width="6" height="6"/></g>
<g transform="translate(520,560) scale(3.3333333333333)"><rect width="6" height="6"/></g>
<g transform="translate(600,560) scale(3.3333333333333)"><rect width="6" height="6"/></g>
<g transform="translate(620,560) scale(3.3333333333333)"><rect width="6" height="6"/></g>
<g transform="translate(640,560) scale(3.3333333333333)"><rect width="6" height="6"/></g>
<g transform="translate(700,560) scale(3.3333333333333)"><rect width="6" height="6"/></g>
<g transform="translate(740,560) scale(3.3333333333333)"><rect width="6" height="6"/></g>
<g transform="translate(840,560) scale(3.3333333333333)"><rect width="6" height="6"/></g>
<g transform="translate(880,560) scale(3.3333333333333)"><rect width="6" height="6"/></g>
<g transform="translate(40,580) scale(3.3333333333333)"><rect width="6" height="6"/></g>
<g transform="translate(60,580) scale(3.3333333333333)"><rect width="6" height="6"/></g>
<g transform="translate(100,580) scale(3.3333333333333)"><rect width="6" height="6"/></g>
<g transform="translate(140,580) scale(3.3333333333333)"><rect width="6" height="6"/></g>
<g transform="translate(200,580) scale(3.3333333333333)"><rect width="6" height="6"/></g>
<g transform="translate(220,580) scale(3.3333333333333)"><rect width="6" height="6"/></g>
<g transform="translate(240,580) scale(3.3333333333333)"><rect width="6" height="6"/></g>
<g transform="translate(260,580) scale(3.3333333333333)"><rect width="6" height="6"/></g>
<g transform="translate(340,580) scale(3.3333333333333)"><rect width="6" height="6"/></g>
<g transform="translate(420,580) scale(3.3333333333333)"><rect width="6" height="6"/></g>
<g transform="translate(440,580) scale(3.3333333333333)"><rect width="6" height="6"/></g>
<g transform="translate(480,580) scale(3.3333333333333)"><rect width="6" height="6"/></g>
<g transform="translate(500,580) scale(3.3333333333333)"><rect width="6" height="6"/></g>
<g transform="translate(520,580) scale(3.3333333333333)"><rect width="6" height="6"/></g>
<g transform="translate(600,580) scale(3.3333333333333)"><rect width="6" height="6"/></g>
<g transform="translate(620,580) scale(3.3333333333333)"><rect width="6" height="6"/></g>
<g transform="translate(640,580) scale(3.3333333333333)"><rect width="6" height="6"/></g>
<g transform="translate(720,580) scale(3.3333333333333)"><rect width="6" height="6"/></g>
<g transform="translate(760,580) scale(3.3333333333333)"><rect width="6" height="6"/></g>
<g transform="translate(800,580) scale(3.3333333333333)"><rect width="6" height="6"/></g>
<g transform="translate(820,580) scale(3.3333333333333)"><rect width="6" height="6"/></g>
<g transform="translate(840,580) scale(3.3333333333333)"><rect width="6" height="6"/></g>
<g transform="translate(860,580) scale(3.3333333333333)"><rect width="6" height="6"/></g>
<g transform="translate(880,580) scale(3.3333333333333)"><rect width="6" height="6"/></g>
<g transform="translate(120,600) scale(3.3333333333333)"><rect width="6" height="6"/></g>
<g transform="translate(160,600) scale(3.3333333333333)"><rect width="6" height="6"/></g>
<g transform="translate(180,600) scale(3.3333333333333)"><rect width="6" height="6"/></g>
<g transform="translate(200,600) scale(3.3333333333333)"><rect width="6" height="6"/></g>
<g transform="translate(220,600) scale(3.3333333333333)"><rect width="6" height="6"/></g>
<g transform="translate(280,600) scale(3.3333333333333)"><rect width="6" height="6"/></g>
<g transform="translate(320,600) scale(3.3333333333333)"><rect width="6" height="6"/></g>
<g transform="translate(360,600) scale(3.3333333333333)"><rect width="6" height="6"/></g>
<g transform="translate(380,600) scale(3.3333333333333)"><rect width="6" height="6"/></g>
<g transform="translate(440,600) scale(3.3333333333333)"><rect width="6" height="6"/></g>
<g transform="translate(460,600) scale(3.3333333333333)"><rect width="6" height="6"/></g>
<g transform="translate(500,600) scale(3.3333333333333)"><rect width="6" height="6"/></g>
<g transform="translate(520,600) scale(3.3333333333333)"><rect width="6" height="6"/></g>
<g transform="translate(560,600) scale(3.3333333333333)"><rect width="6" height="6"/></g>
<g transform="translate(620,600) scale(3.3333333333333)"><rect width="6" height="6"/></g>
<g transform="translate(640,600) scale(3.3333333333333)"><rect width="6" height="6"/></g>
<g transform="translate(660,600) scale(3.3333333333333)"><rect width="6" height="6"/></g>
<g transform="translate(680,600) scale(3.3333333333333)"><rect width="6" height="6"/></g>
<g transform="translate(720,600) scale(3.3333333333333)"><rect width="6" height="6"/></g>
<g transform="translate(740,600) scale(3.3333333333333)"><rect width="6" height="6"/></g>
<g transform="translate(800,600) scale(3.3333333333333)"><rect width="6" height="6"/></g>
<g transform="translate(840,600) scale(3.3333333333333)"><rect width="6" height="6"/></g>
<g transform="translate(880,600) scale(3.3333333333333)"><rect width="6" height="6"/></g>
<g transform="translate(900,600) scale(3.3333333333333)"><rect width="6" height="6"/></g>
<g transform="translate(920,600) scale(3.3333333333333)"><rect width="6" height="6"/></g>
<g transform="translate(80,620) scale(3.3333333333333)"><rect width="6" height="6"/></g>
<g transform="translate(140,620) scale(3.3333333333333)"><rect width="6" height="6"/></g>
<g transform="translate(240,620) scale(3.3333333333333)"><rect width="6" height="6"/></g>
<g transform="translate(260,620) scale(3.3333333333333)"><rect width="6" height="6"/></g>
<g transform="translate(300,620) scale(3.3333333333333)"><rect width="6" height="6"/></g>
<g transform="translate(340,620) scale(3.3333333333333)"><rect width="6" height="6"/></g>
<g transform="translate(380,620) scale(3.3333333333333)"><rect width="6" height="6"/></g>
<g transform="translate(400,620) scale(3.3333333333333)"><rect width="6" height="6"/></g>
<g transform="translate(440,620) scale(3.3333333333333)"><rect width="6" height="6"/></g>
<g transform="translate(480,620) scale(3.3333333333333)"><rect width="6" height="6"/></g>
<g transform="translate(540,620) scale(3.3333333333333)"><rect width="6" height="6"/></g>
<g transform="translate(660,620) scale(3.3333333333333)"><rect width="6" height="6"/></g>
<g transform="translate(680,620) scale(3.3333333333333)"><rect width="6" height="6"/></g>
<g transform="translate(760,620) scale(3.3333333333333)"><rect width="6" height="6"/></g>
<g transform="translate(780,620) scale(3.3333333333333)"><rect width="6" height="6"/></g>
<g transform="translate(900,620) scale(3.3333333333333)"><rect width="6" height="6"/></g>
<g transform="translate(60,640) scale(3.3333333333333)"><rect width="6" height="6"/></g>
<g transform="translate(80,640) scale(3.3333333333333)"><rect width="6" height="6"/></g>
<g transform="translate(120,640) scale(3.3333333333333)"><rect width="6" height="6"/></g>
<g transform="translate(160,640) scale(3.3333333333333)"><rect width="6" height="6"/></g>
<g transform="translate(180,640) scale(3.3333333333333)"><rect width="6" height="6"/></g>
<g transform="translate(260,640) scale(3.3333333333333)"><rect width="6" height="6"/></g>
<g transform="translate(280,640) scale(3.3333333333333)"><rect width="6" height="6"/></g>
<g transform="translate(400,640) scale(3.3333333333333)"><rect width="6" height="6"/></g>
<g transform="translate(440,640) scale(3.3333333333333)"><rect width="6" height="6"/></g>
<g transform="translate(500,640) scale(3.3333333333333)"><rect width="6" height="6"/></g>
<g transform="translate(540,640) scale(3.3333333333333)"><rect width="6" height="6"/></g>
<g transform="translate(600,640) scale(3.3333333333333)"><rect width="6" height="6"/></g>
<g transform="translate(680,640) scale(3.3333333333333)"><rect width="6" height="6"/></g>
<g transform="translate(720,640) scale(3.3333333333333)"><rect width="6" height="6"/></g>
<g transform="translate(780,640) scale(3.3333333333333)"><rect width="6" height="6"/></g>
<g transform="translate(820,640) scale(3.3333333333333)"><rect width="6" height="6"/></g>
<g transform="translate(880,640) scale(3.3333333333333)"><rect width="6" height="6"/></g>
<g transform="translate(40,660) scale(3.3333333333333)"><rect width="6" height="6"/></g>
<g transform="translate(60,660) scale(3.3333333333333)"><rect width="6" height="6"/></g>
<g transform="translate(100,660) scale(3.3333333333333)"><rect width="6" height="6"/></g>
<g transform="translate(120,660) scale(3.3333333333333)"><rect width="6" height="6"/></g>
<g transform="translate(180,660) scale(3.3333333333333)"><rect width="6" height="6"/></g>
<g transform="translate(240,660) scale(3.3333333333333)"><rect width="6" height="6"/></g>
<g transform="translate(300,660) scale(3.3333333333333)"><rect width="6" height="6"/></g>
<g transform="translate(320,660) scale(3.3333333333333)"><rect width="6" height="6"/></g>
<g transform="translate(380,660) scale(3.3333333333333)"><rect width="6" height="6"/></g>
<g transform="translate(420,660) scale(3.3333333333333)"><rect width="6" height="6"/></g>
<g transform="translate(440,660) scale(3.3333333333333)"><rect width="6" height="6"/></g>
<g transform="translate(460,660) scale(3.3333333333333)"><rect width="6" height="6"/></g>
<g transform="translate(500,660) scale(3.3333333333333)"><rect width="6" height="6"/></g>
<g transform="translate(520,660) scale(3.3333333333333)"><rect width="6" height="6"/></g>
<g transform="translate(540,660) scale(3.3333333333333)"><rect width="6" height="6"/></g>
<g transform="translate(560,660) scale(3.3333333333333)"><rect width="6" height="6"/></g>
<g transform="translate(580,660) scale(3.3333333333333)"><rect width="6" height="6"/></g>
<g transform="translate(620,660) scale(3.3333333333333)"><rect width="6" height="6"/></g>
<g transform="translate(680,660) scale(3.3333333333333)"><rect width="6" height="6"/></g>
<g transform="translate(720,660) scale(3.3333333333333)"><rect width="6" height="6"/></g>
<g transform="translate(760,660) scale(3.3333333333333)"><rect width="6" height="6"/></g>
<g transform="translate(780,660) scale(3.3333333333333)"><rect width="6" height="6"/></g>
<g transform="translate(920,660) scale(3.3333333333333)"><rect width="6" height="6"/></g>
<g transform="translate(80,680) scale(3.3333333333333)"><rect width="6" height="6"/></g>
<g transform="translate(140,680) scale(3.3333333333333)"><rect width="6" height="6"/></g>
<g transform="translate(160,680) scale(3.3333333333333)"><rect width="6" height="6"/></g>
<g transform="translate(200,680) scale(3.3333333333333)"><rect width="6" height="6"/></g>
<g transform="translate(240,680) scale(3.3333333333333)"><rect width="6" height="6"/></g>
<g transform="translate(300,680) scale(3.3333333333333)"><rect width="6" height="6"/></g>
<g transform="translate(340,680) scale(3.3333333333333)"><rect width="6" height="6"/></g>
<g transform="translate(360,680) scale(3.3333333333333)"><rect width="6" height="6"/></g>
<g transform="translate(440,680) scale(3.3333333333333)"><rect width="6" height="6"/></g>
<g transform="translate(480,680) scale(3.3333333333333)"><rect width="6" height="6"/></g>
<g transform="translate(520,680) scale(3.3333333333333)"><rect width="6" height="6"/></g>
<g transform="translate(540,680) scale(3.3333333333333)"><rect width="6" height="6"/></g>
<g transform="translate(560,680) scale(3.3333333333333)"><rect width="6" height="6"/></g>
<g transform="translate(600,680) scale(3.3333333333333)"><rect width="6" height="6"/></g>
<g transform="translate(700,680) scale(3.3333333333333)"><rect width="6" height="6"/></g>
<g transform="translate(720,680) scale(3.3333333333333)"><rect width="6" height="6"/></g>
<g transform="translate(820,680) scale(3.3333333333333)"><rect width="6" height="6"/></g>
<g transform="translate(880,680) scale(3.3333333333333)"><rect width="6" height="6"/></g>
<g transform="translate(900,680) scale(3.3333333333333)"><rect width="6" height="6"/></g>
<g transform="translate(920,680) scale(3.3333333333333)"><rect width="6" height="6"/></g>
<g transform="translate(40,700) scale(3.3333333333333)"><rect width="6" height="6"/></g>
<g transform="translate(80,700) scale(3.3333333333333)"><rect width="6" height="6"/></g>
<g transform="translate(100,700) scale(3.3333333333333)"><rect width="6" height="6"/></g>
<g transform="translate(120,700) scale(3.3333333333333)"><rect width="6" height="6"/></g>
<g transform="translate(220,700) scale(3.3333333333333)"><rect width="6" height="6"/></g>
<g transform="translate(260,700) scale(3.3333333333333)"><rect width="6" height="6"/></g>
<g transform="translate(280,700) scale(3.3333333333333)"><rect width="6" height="6"/></g>
<g transform="translate(320,700) scale(3.3333333333333)"><rect width="6" height="6"/></g>
<g transform="translate(400,700) scale(3.3333333333333)"><rect width="6" height="6"/></g>
<g transform="translate(420,700) scale(3.3333333333333)"><rect width="6" height="6"/></g>
<g transform="translate(440,700) scale(3.3333333333333)"><rect width="6" height="6"/></g>
<g transform="translate(460,700) scale(3.3333333333333)"><rect width="6" height="6"/></g>
<g transform="translate(500,700) scale(3.3333333333333)"><rect width="6" height="6"/></g>
<g transform="translate(520,700) scale(3.3333333333333)"><rect width="6" height="6"/></g>
<g transform="translate(540,700) scale(3.3333333333333)"><rect width="6" height="6"/></g>
<g transform="translate(560,700) scale(3.3333333333333)"><rect width="6" height="6"/></g>
<g transform="translate(620,700) scale(3.3333333333333)"><rect width="6" height="6"/></g>
<g transform="translate(660,700) scale(3.3333333333333)"><rect width="6" height="6"/></g>
<g transform="translate(680,700) scale(3.3333333333333)"><rect width="6" height="6"/></g>
<g transform="translate(740,700) scale(3.3333333333333)"><rect width="6" height="6"/></g>
<g transform="translate(760,700) scale(3.3333333333333)"><rect width="6" height="6"/></g>
<g transform="translate(800,700) scale(3.3333333333333)"><rect width="6" height="6"/></g>
<g transform="translate(820,700) scale(3.3333333333333)"><rect width="6" height="6"/></g>
<g transform="translate(860,700) scale(3.3333333333333)"><rect width="6" height="6"/></g>
<g transform="translate(880,700) scale(3.3333333333333)"><rect width="6" height="6"/></g>
<g transform="translate(920,700) scale(3.3333333333333)"><rect width="6" height="6"/></g>
<g transform="translate(120,720) scale(3.3333333333333)"><rect width="6" height="6"/></g>
<g transform="translate(160,720) scale(3.3333333333333)"><rect width="6" height="6"/></g>
<g transform="translate(240,720) scale(3.3333333333333)"><rect width="6" height="6"/></g>
<g transform="translate(380,720) scale(3.3333333333333)"><rect width="6" height="6"/></g>
<g transform="translate(400,720) scale(3.3333333333333)"><rect width="6" height="6"/></g>
<g transform="translate(420,720) scale(3.3333333333333)"><rect width="6" height="6"/></g>
<g transform="translate(440,720) scale(3.3333333333333)"><rect width="6" height="6"/></g>
<g transform="translate(500,720) scale(3.3333333333333)"><rect width="6" height="6"/></g>
<g transform="translate(580,720) scale(3.3333333333333)"><rect width="6" height="6"/></g>
<g transform="translate(640,720) scale(3.3333333333333)"><rect width="6" height="6"/></g>
<g transform="translate(660,720) scale(3.3333333333333)"><rect width="6" height="6"/></g>
<g transform="translate(700,720) scale(3.3333333333333)"><rect width="6" height="6"/></g>
<g transform="translate(720,720) scale(3.3333333333333)"><rect width="6" height="6"/></g>
<g transform="translate(740,720) scale(3.3333333333333)"><rect width="6" height="6"/></g>
<g transform="translate(820,720) scale(3.3333333333333)"><rect width="6" height="6"/></g>
<g transform="translate(880,720) scale(3.3333333333333)"><rect width="6" height="6"/></g>
<g transform="translate(900,720) scale(3.3333333333333)"><rect width="6" height="6"/></g>
<g transform="translate(60,740) scale(3.3333333333333)"><rect width="6" height="6"/></g>
<g transform="translate(80,740) scale(3.3333333333333)"><rect width="6" height="6"/></g>
<g transform="translate(100,740) scale(3.3333333333333)"><rect width="6" height="6"/></g>
<g transform="translate(120,740) scale(3.3333333333333)"><rect width="6" height="6"/></g>
<g transform="translate(200,740) scale(3.3333333333333)"><rect width="6" height="6"/></g>
<g transform="translate(220,740) scale(3.3333333333333)"><rect width="6" height="6"/></g>
<g transform="translate(260,740) scale(3.3333333333333)"><rect width="6" height="6"/></g>
<g transform="translate(280,740) scale(3.3333333333333)"><rect width="6" height="6"/></g>
<g transform="translate(300,740) scale(3.3333333333333)"><rect width="6" height="6"/></g>
<g transform="translate(320,740) scale(3.3333333333333)"><rect width="6" height="6"/></g>
<g transform="translate(340,740) scale(3.3333333333333)"><rect width="6" height="6"/></g>
<g transform="translate(380,740) scale(3.3333333333333)"><rect width="6" height="6"/></g>
<g transform="translate(400,740) scale(3.3333333333333)"><rect width="6" height="6"/></g>
<g transform="translate(440,740) scale(3.3333333333333)"><rect width="6" height="6"/></g>
<g transform="translate(460,740) scale(3.3333333333333)"><rect width="6" height="6"/></g>
<g transform="translate(480,740) scale(3.3333333333333)"><rect width="6" height="6"/></g>
<g transform="translate(500,740) scale(3.3333333333333)"><rect width="6" height="6"/></g>
<g transform="translate(580,740) scale(3.3333333333333)"><rect width="6" height="6"/></g>
<g transform="translate(620,740) scale(3.3333333333333)"><rect width="6" height="6"/></g>
<g transform="translate(680,740) scale(3.3333333333333)"><rect width="6" height="6"/></g>
<g transform="translate(740,740) scale(3.3333333333333)"><rect width="6" height="6"/></g>
<g transform="translate(760,740) scale(3.3333333333333)"><rect width="6" height="6"/></g>
<g transform="translate(820,740) scale(3.3333333333333)"><rect width="6" height="6"/></g>
<g transform="translate(840,740) scale(3.3333333333333)"><rect width="6" height="6"/></g>
<g transform="translate(860,740) scale(3.3333333333333)"><rect width="6" height="6"/></g>
<g transform="translate(880,740) scale(3.3333333333333)"><rect width="6" height="6"/></g>
<g transform="translate(900,740) scale(3.3333333333333)"><rect width="6" height="6"/></g>
<g transform="translate(920,740) scale(3.3333333333333)"><rect width="6" height="6"/></g>
<g transform="translate(40,760) scale(3.3333333333333)"><rect width="6" height="6"/></g>
<g transform="translate(100,760) scale(3.3333333333333)"><rect width="6" height="6"/></g>
<g transform="translate(120,760) scale(3.3333333333333)"><rect width="6" height="6"/></g>
<g transform="translate(160,760) scale(3.3333333333333)"><rect width="6" height="6"/></g>
<g transform="translate(240,760) scale(3.3333333333333)"><rect width="6" height="6"/></g>
<g transform="translate(280,760) scale(3.3333333333333)"><rect width="6" height="6"/></g>
<g transform="translate(300,760) scale(3.3333333333333)"><rect width="6" height="6"/></g>
<g transform="translate(440,760) scale(3.3333333333333)"><rect width="6" height="6"/></g>
<g transform="translate(460,760) scale(3.3333333333333)"><rect width="6" height="6"/></g>
<g transform="translate(480,760) scale(3.3333333333333)"><rect width="6" height="6"/></g>
<g transform="translate(500,760) scale(3.3333333333333)"><rect width="6" height="6"/></g>
<g transform="translate(520,760) scale(3.3333333333333)"><rect width="6" height="6"/></g>
<g transform="translate(580,760) scale(3.3333333333333)"><rect width="6" height="6"/></g>
<g transform="translate(600,760) scale(3.3333333333333)"><rect width="6" height="6"/></g>
<g transform="translate(660,760) scale(3.3333333333333)"><rect width="6" height="6"/></g>
<g transform="translate(760,760) scale(3.3333333333333)"><rect width="6" height="6"/></g>
<g transform="translate(780,760) scale(3.3333333333333)"><rect width="6" height="6"/></g>
<g transform="translate(800,760) scale(3.3333333333333)"><rect width="6" height="6"/></g>
<g transform="translate(820,760) scale(3.3333333333333)"><rect width="6" height="6"/></g>
<g transform="translate(840,760) scale(3.3333333333333)"><rect width="6" height="6"/></g>
<g transform="translate(860,760) scale(3.3333333333333)"><rect width="6" height="6"/></g>
<g transform="translate(900,760) scale(3.3333333333333)"><rect width="6" height="6"/></g>
<g transform="translate(920,760) scale(3.3333333333333)"><rect width="6" height="6"/></g>
<g transform="translate(200,780) scale(3.3333333333333)"><rect width="6" height="6"/></g>
<g transform="translate(240,780) scale(3.3333333333333)"><rect width="6" height="6"/></g>
<g transform="translate(280,780) scale(3.3333333333333)"><rect width="6" height="6"/></g>
<g transform="translate(340,780) scale(3.3333333333333)"><rect width="6" height="6"/></g>
<g transform="translate(360,780) scale(3.3333333333333)"><rect width="6" height="6"/></g>
<g transform="translate(380,780) scale(3.3333333333333)"><rect width="6" height="6"/></g>
<g transform="translate(440,780) scale(3.3333333333333)"><rect width="6" height="6"/></g>
<g transform="translate(520,780) scale(3.3333333333333)"><rect width="6" height="6"/></g>
<g transform="translate(540,780) scale(3.3333333333333)"><rect width="6" height="6"/></g>
<g transform="translate(600,780) scale(3.3333333333333)"><rect width="6" height="6"/></g>
<g transform="translate(660,780) scale(3.3333333333333)"><rect width="6" height="6"/></g>
<g transform="translate(680,780) scale(3.3333333333333)"><rect width="6" height="6"/></g>
<g transform="translate(700,780) scale(3.3333333333333)"><rect width="6" height="6"/></g>
<g transform="translate(720,780) scale(3.3333333333333)"><rect width="6" height="6"/></g>
<g transform="translate(760,780) scale(3.3333333333333)"><rect width="6" height="6"/></g>
<g transform="translate(840,780) scale(3.3333333333333)"><rect width="6" height="6"/></g>
<g transform="translate(860,780) scale(3.3333333333333)"><rect width="6" height="6"/></g>
<g transform="translate(920,780) scale(3.3333333333333)"><rect width="6" height="6"/></g>
<g transform="translate(300,800) scale(3.3333333333333)"><rect width="6" height="6"/></g>
<g transform="translate(360,800) scale(3.3333333333333)"><rect width="6" height="6"/></g>
<g transform="translate(400,800) scale(3.3333333333333)"><rect width="6" height="6"/></g>
<g transform="translate(440,800) scale(3.3333333333333)"><rect width="6" height="6"/></g>
<g transform="translate(480,800) scale(3.3333333333333)"><rect width="6" height="6"/></g>
<g transform="translate(520,800) scale(3.3333333333333)"><rect width="6" height="6"/></g>
<g transform="translate(540,800) scale(3.3333333333333)"><rect width="6" height="6"/></g>
<g transform="translate(560,800) scale(3.3333333333333)"><rect width="6" height="6"/></g>
<g transform="translate(600,800) scale(3.3333333333333)"><rect width="6" height="6"/></g>
<g transform="translate(700,800) scale(3.3333333333333)"><rect width="6" height="6"/></g>
<g transform="translate(720,800) scale(3.3333333333333)"><rect width="6" height="6"/></g>
<g transform="translate(760,800) scale(3.3333333333333)"><rect width="6" height="6"/></g>
<g transform="translate(800,800) scale(3.3333333333333)"><rect width="6" height="6"/></g>
<g transform="translate(840,800) scale(3.3333333333333)"><rect width="6" height="6"/></g>
<g transform="translate(900,800) scale(3.3333333333333)"><rect width="6" height="6"/></g>
<g transform="translate(240,820) scale(3.3333333333333)"><rect width="6" height="6"/></g>
<g transform="translate(260,820) scale(3.3333333333333)"><rect width="6" height="6"/></g>
<g transform="translate(340,820) scale(3.3333333333333)"><rect width="6" height="6"/></g>
<g transform="translate(360,820) scale(3.3333333333333)"><rect width="6" height="6"/></g>
<g transform="translate(440,820) scale(3.3333333333333)"><rect width="6" height="6"/></g>
<g transform="translate(520,820) scale(3.3333333333333)"><rect width="6" height="6"/></g>
<g transform="translate(560,820) scale(3.3333333333333)"><rect width="6" height="6"/></g>
<g transform="translate(580,820) scale(3.3333333333333)"><rect width="6" height="6"/></g>
<g transform="translate(600,820) scale(3.3333333333333)"><rect width="6" height="6"/></g>
<g transform="translate(640,820) scale(3.3333333333333)"><rect width="6" height="6"/></g>
<g transform="translate(660,820) scale(3.3333333333333)"><rect width="6" height="6"/></g>
<g transform="translate(680,820) scale(3.3333333333333)"><rect width="6" height="6"/></g>
<g transform="translate(700,820) scale(3.3333333333333)"><rect width="6" height="6"/></g>
<g transform="translate(720,820) scale(3.3333333333333)"><rect width="6" height="6"/></g>
<g transform="translate(760,820) scale(3.3333333333333)"><rect width="6" height="6"/></g>
<g transform="translate(840,820) scale(3.3333333333333)"><rect width="6" height="6"/></g>
<g transform="translate(860,820) scale(3.3333333333333)"><rect width="6" height="6"/></g>
<g transform="translate(880,820) scale(3.3333333333333)"><rect width="6" height="6"/></g>
<g transform="translate(920,820) scale(3.3333333333333)"><rect width="6" height="6"/></g>
<g transform="translate(200,840) scale(3.3333333333333)"><rect width="6" height="6"/></g>
<g transform="translate(260,840) scale(3.3333333333333)"><rect width="6" height="6"/></g>
<g transform="translate(280,840) scale(3.3333333333333)"><rect width="6" height="6"/></g>
<g transform="translate(300,840) scale(3.3333333333333)"><rect width="6" height="6"/></g>
<g transform="translate(400,840) scale(3.3333333333333)"><rect width="6" height="6"/></g>
<g transform="translate(420,840) scale(3.3333333333333)"><rect width="6" height="6"/></g>
<g transform="translate(440,840) scale(3.3333333333333)"><rect width="6" height="6"/></g>
<g transform="translate(460,840) scale(3.3333333333333)"><rect width="6" height="6"/></g>
<g transform="translate(480,840) scale(3.3333333333333)"><rect width="6" height="6"/></g>
<g transform="translate(500,840) scale(3.3333333333333)"><rect width="6" height="6"/></g>
<g transform="translate(520,840) scale(3.3333333333333)"><rect width="6" height="6"/></g>
<g transform="translate(560,840) scale(3.3333333333333)"><rect width="6" height="6"/></g>
<g transform="translate(600,840) scale(3.3333333333333)"><rect width="6" height="6"/></g>
<g transform="translate(620,840) scale(3.3333333333333)"><rect width="6" height="6"/></g>
<g transform="translate(640,840) scale(3.3333333333333)"><rect width="6" height="6"/></g>
<g transform="translate(660,840) scale(3.3333333333333)"><rect width="6" height="6"/></g>
<g transform="translate(760,840) scale(3.3333333333333)"><rect width="6" height="6"/></g>
<g transform="translate(780,840) scale(3.3333333333333)"><rect width="6" height="6"/></g>
<g transform="translate(800,840) scale(3.3333333333333)"><rect width="6" height="6"/></g>
<g transform="translate(820,840) scale(3.3333333333333)"><rect width="6" height="6"/></g>
<g transform="translate(840,840) scale(3.3333333333333)"><rect width="6" height="6"/></g>
<g transform="translate(900,840) scale(3.3333333333333)"><rect width="6" height="6"/></g>
<g transform="translate(920,840) scale(3.3333333333333)"><rect width="6" height="6"/></g>
<g transform="translate(200,860) scale(3.3333333333333)"><rect width="6" height="6"/></g>
<g transform="translate(220,860) scale(3.3333333333333)"><rect width="6" height="6"/></g>
<g transform="translate(240,860) scale(3.3333333333333)"><rect width="6" height="6"/></g>
<g transform="translate(260,860) scale(3.3333333333333)"><rect width="6" height="6"/></g>
<g transform="translate(320,860) scale(3.3333333333333)"><rect width="6" height="6"/></g>
<g transform="translate(340,860) scale(3.3333333333333)"><rect width="6" height="6"/></g>
<g transform="translate(420,860) scale(3.3333333333333)"><rect width="6" height="6"/></g>
<g transform="translate(440,860) scale(3.3333333333333)"><rect width="6" height="6"/></g>
<g transform="translate(480,860) scale(3.3333333333333)"><rect width="6" height="6"/></g>
<g transform="translate(520,860) scale(3.3333333333333)"><rect width="6" height="6"/></g>
<g transform="translate(540,860) scale(3.3333333333333)"><rect width="6" height="6"/></g>
<g transform="translate(580,860) scale(3.3333333333333)"><rect width="6" height="6"/></g>
<g transform="translate(620,860) scale(3.3333333333333)"><rect width="6" height="6"/></g>
<g transform="translate(660,860) scale(3.3333333333333)"><rect width="6" height="6"/></g>
<g transform="translate(680,860) scale(3.3333333333333)"><rect width="6" height="6"/></g>
<g transform="translate(700,860) scale(3.3333333333333)"><rect width="6" height="6"/></g>
<g transform="translate(860,860) scale(3.3333333333333)"><rect width="6" height="6"/></g>
<g transform="translate(900,860) scale(3.3333333333333)"><rect width="6" height="6"/></g>
<g transform="translate(200,880) scale(3.3333333333333)"><rect width="6" height="6"/></g>
<g transform="translate(240,880) scale(3.3333333333333)"><rect width="6" height="6"/></g>
<g transform="translate(260,880) scale(3.3333333333333)"><rect width="6" height="6"/></g>
<g transform="translate(340,880) scale(3.3333333333333)"><rect width="6" height="6"/></g>
<g transform="translate(380,880) scale(3.3333333333333)"><rect width="6" height="6"/></g>
<g transform="translate(400,880) scale(3.3333333333333)"><rect width="6" height="6"/></g>
<g transform="translate(460,880) scale(3.3333333333333)"><rect width="6" height="6"/></g>
<g transform="translate(520,880) scale(3.3333333333333)"><rect width="6" height="6"/></g>
<g transform="translate(660,880) scale(3.3333333333333)"><rect width="6" height="6"/></g>
<g transform="translate(740,880) scale(3.3333333333333)"><rect width="6" height="6"/></g>
<g transform="translate(760,880) scale(3.3333333333333)"><rect width="6" height="6"/></g>
<g transform="translate(780,880) scale(3.3333333333333)"><rect width="6" height="6"/></g>
<g transform="translate(800,880) scale(3.3333333333333)"><rect width="6" height="6"/></g>
<g transform="translate(860,880) scale(3.3333333333333)"><rect width="6" height="6"/></g>
<g transform="translate(260,900) scale(3.3333333333333)"><rect width="6" height="6"/></g>
<g transform="translate(340,900) scale(3.3333333333333)"><rect width="6" height="6"/></g>
<g transform="translate(360,900) scale(3.3333333333333)"><rect width="6" height="6"/></g>
<g transform="translate(380,900) scale(3.3333333333333)"><rect width="6" height="6"/></g>
<g transform="translate(420,900) scale(3.3333333333333)"><rect width="6" height="6"/></g>
<g transform="translate(460,900) scale(3.3333333333333)"><rect width="6" height="6"/></g>
<g transform="translate(480,900) scale(3.3333333333333)"><rect width="6" height="6"/></g>
<g transform="translate(500,900) scale(3.3333333333333)"><rect width="6" height="6"/></g>
<g transform="translate(540,900) scale(3.3333333333333)"><rect width="6" height="6"/></g>
<g transform="translate(560,900) scale(3.3333333333333)"><rect width="6" height="6"/></g>
<g transform="translate(580,900) scale(3.3333333333333)"><rect width="6" height="6"/></g>
<g transform="translate(720,900) scale(3.3333333333333)"><rect width="6" height="6"/></g>
<g transform="translate(760,900) scale(3.3333333333333)"><rect width="6" height="6"/></g>
<g transform="translate(840,900) scale(3.3333333333333)"><rect width="6" height="6"/></g>
<g transform="translate(860,900) scale(3.3333333333333)"><rect width="6" height="6"/></g>
<g transform="translate(880,900) scale(3.3333333333333)"><rect width="6" height="6"/></g>
<g transform="translate(220,920) scale(3.3333333333333)"><rect width="6" height="6"/></g>
<g transform="translate(320,920) scale(3.3333333333333)"><rect width="6" height="6"/></g>
<g transform="translate(340,920) scale(3.3333333333333)"><rect width="6" height="6"/></g>
<g transform="translate(420,920) scale(3.3333333333333)"><rect width="6" height="6"/></g>
<g transform="translate(440,920) scale(3.3333333333333)"><rect width="6" height="6"/></g>
<g transform="translate(500,920) scale(3.3333333333333)"><rect width="6" height="6"/></g>
<g transform="translate(540,920) scale(3.3333333333333)"><rect width="6" height="6"/></g>
<g transform="translate(560,920) scale(3.3333333333333)"><rect width="6" height="6"/></g>
<g transform="translate(620,920) scale(3.3333333333333)"><rect width="6" height="6"/></g>
<g transform="translate(640,920) scale(3.3333333333333)"><rect width="6" height="6"/></g>
<g transform="translate(660,920) scale(3.3333333333333)"><rect width="6" height="6"/></g>
<g transform="translate(680,920) scale(3.3333333333333)"><rect width="6" height="6"/></g>
<g transform="translate(700,920) scale(3.3333333333333)"><rect width="6" height="6"/></g>
<g transform="translate(720,920) scale(3.3333333333333)"><rect width="6" height="6"/></g>
<g transform="translate(740,920) scale(3.3333333333333)"><rect width="6" height="6"/></g>
<g transform="translate(760,920) scale(3.3333333333333)"><rect width="6" height="6"/></g>
<g transform="translate(780,920) scale(3.3333333333333)"><rect width="6" height="6"/></g>
<g transform="translate(800,920) scale(3.3333333333333)"><rect width="6" height="6"/></g>
<g transform="translate(820,920) scale(3.3333333333333)"><rect width="6" height="6"/></g>
<g transform="translate(840,920) scale(3.3333333333333)"><rect width="6" height="6"/></g>
<g transform="translate(900,920) scale(3.3333333333333)"><rect width="6" height="6"/></g>
</g></mask></defs>
<rect width="980" height="980" fill="#ffffff" x="0" y="0" />
<rect x="0" y="0" width="980" height="980" mask="url(#qrmask)" fill="#000000" />
<g transform="translate(40,40)"  fill="#000000"><g transform="scale(10)"><path d="M0,0v14h14V0H0z M12,12H2V2h10V12z"/></g></g>
<g transform="translate(800,40)"  fill="#000000"><g transform="scale(10)"><path d="M0,0v14h14V0H0z M12,12H2V2h10V12z"/></g></g>
<g transform="translate(40,800)"  fill="#000000"><g transform="scale(10)"><path d="M0,0v14h14V0H0z M12,12H2V2h10V12z"/></g></g>
<g transform="translate(80,80)"  fill="#000000"><g transform="scale(10)"><rect width="6" height="6"/></g></g>
<g transform="translate(840,80)"  fill="#000000"><g transform="scale(10)"><rect width="6" height="6"/></g></g>
<g transform="translate(80,840)"  fill="#000000"><g transform="scale(10)"><rect width="6" height="6"/></g></g>
</svg>