<svg xmlns="http://www.w3.org/2000/svg" height="512pt" version="1.1" viewBox="0 -55 512 512" width="512pt">
<g id="surface1">
<path d="M 286.703125 195.550781 L 225.296875 195.550781 C 214.597656 195.550781 205.894531 204.253906 205.894531 214.949219 L 205.894531 246.3125 C 205.894531 257.011719 214.597656 265.714844 225.296875 265.714844 L 286.703125 265.714844 C 297.402344 265.714844 306.105469 257.011719 306.105469 246.3125 L 306.105469 214.949219 C 306.105469 204.253906 297.402344 195.550781 286.703125 195.550781 Z M 291.105469 246.316406 C 291.105469 248.742188 289.132812 250.71875 286.703125 250.71875 L 225.296875 250.71875 C 222.867188 250.71875 220.894531 248.742188 220.894531 246.316406 L 220.894531 214.953125 C 220.894531 212.523438 222.867188 210.550781 225.296875 210.550781 L 286.703125 210.550781 C 289.132812 210.550781 291.105469 212.523438 291.105469 214.953125 Z M 291.105469 246.316406 " style=" stroke:none;fill-rule:nonzero;fill:rgb(0%,0%,0%);fill-opacity:1;" />
<path d="M 511.894531 83.921875 C 510.828125 73.464844 501.972656 65.28125 491.242188 65.28125 L 344.773438 65.28125 L 344.773438 30.160156 C 344.773438 13.53125 331.242188 0 314.613281 0 L 197.386719 0 C 180.757812 0 167.226562 13.53125 167.226562 30.160156 L 167.226562 65.28125 L 20.757812 65.28125 C 10.027344 65.28125 1.171875 73.464844 0.109375 83.921875 C 0.0351562 84.617188 0 85.324219 0 86.039062 L 0 382.121094 C 0 393.566406 9.3125 402.878906 20.757812 402.878906 L 491.242188 402.878906 C 502.6875 402.878906 512 393.566406 512 382.121094 L 512 86.039062 C 512 85.324219 511.964844 84.617188 511.894531 83.921875 Z M 182.226562 30.160156 C 182.226562 21.800781 189.027344 15 197.386719 15 L 314.613281 15 C 322.972656 15 329.773438 21.800781 329.773438 30.160156 L 329.773438 65.28125 L 320.144531 65.28125 L 320.144531 35.992188 C 320.144531 29.726562 315.046875 24.628906 308.78125 24.628906 L 203.21875 24.628906 C 196.953125 24.628906 191.855469 29.726562 191.855469 35.992188 L 191.855469 65.28125 L 182.226562 65.28125 Z M 305.144531 39.628906 L 305.144531 65.28125 L 206.855469 65.28125 L 206.855469 39.628906 Z M 497 96.25 C 497 114.878906 486.121094 132.066406 469.285156 140.039062 L 329.746094 206.125 C 326.003906 207.898438 324.40625 212.371094 326.179688 216.113281 C 327.949219 219.859375 332.425781 221.453125 336.164062 219.683594 L 475.703125 153.597656 C 484.03125 149.652344 491.246094 143.984375 497 137.148438 L 497 382.121094 C 497 385.296875 494.417969 387.878906 491.242188 387.878906 L 20.757812 387.878906 C 17.582031 387.878906 15 385.296875 15 382.121094 L 15 137.148438 C 20.753906 143.984375 27.96875 149.652344 36.296875 153.597656 L 176.082031 219.800781 C 177.117188 220.289062 178.210938 220.523438 179.285156 220.523438 C 182.097656 220.523438 184.789062 218.9375 186.070312 216.230469 C 187.84375 212.488281 186.246094 208.015625 182.503906 206.242188 L 42.714844 140.039062 C 25.878906 132.066406 15 114.878906 15 96.25 L 15 86.039062 C 15 85.839844 15.011719 85.644531 15.03125 85.449219 C 15.324219 82.550781 17.78125 80.28125 20.757812 80.28125 L 491.242188 80.28125 C 494.21875 80.28125 496.675781 82.550781 496.96875 85.449219 C 496.988281 85.644531 497 85.839844 497 86.039062 Z M 497 96.25 " style=" stroke:none;fill-rule:nonzero;fill:rgb(0%,0%,0%);fill-opacity:1;" />
</g>
</svg>